<?xml version="1.0" encoding="UTF-8"?>
<svg version="1.1" xmlns="http://www.w3.org/2000/svg" width="500" height="500">
<path d="M0 0 C0.74272156 -0.00067474 1.48544312 -0.00134949 2.25067139 -0.00204468 C15.94083473 0.01754461 29.29604577 0.96692145 42.8125 3.25 C43.80362793 3.41628906 44.79475586 3.58257812 45.81591797 3.75390625 C79.04767158 9.54920641 114.81437367 22.54175974 141.8125 43.25 C143.64471215 44.56406469 145.47810135 45.87648933 147.3125 47.1875 C157.02444025 54.29778445 166.09481771 61.95502484 174.8125 70.25 C175.38049316 70.78931152 175.94848633 71.32862305 176.53369141 71.88427734 C184.57276638 79.57237861 191.84050433 87.54067132 198.48144531 96.46582031 C199.8339254 98.27871915 201.20843443 100.07325243 202.5859375 101.8671875 C209.4438496 110.89277532 215.35862898 120.31708188 220.8125 130.25 C221.15877441 130.87922363 221.50504883 131.50844727 221.86181641 132.15673828 C232.27201851 151.3580033 239.87067725 172.0033351 244.8125 193.25 C245.10979004 194.52351318 245.10979004 194.52351318 245.41308594 195.82275391 C259.80335458 258.95308085 247.98519747 326.83785075 214.25878906 381.95361328 C211.06744596 387.02075933 207.64230714 391.88776202 204.02148438 396.65576172 C202.79616584 398.27153919 201.59263614 399.90198894 200.390625 401.53515625 C194.38523433 409.61157828 187.78757823 417.00341148 180.8125 424.25 C180.26045898 424.82927246 179.70841797 425.40854492 179.13964844 426.00537109 C171.45606348 434.03781099 163.49926193 441.29290435 154.57910156 447.92773438 C152.81428942 449.24866065 151.07443514 450.59781837 149.3359375 451.953125 C107.34648838 484.24959082 54.19260296 500.46197712 1.625 500.5 C0.78379608 500.50067474 -0.05740784 500.50134949 -0.92410278 500.50204468 C-14.87105911 500.4843394 -28.43844859 499.75117032 -42.1875 497.25 C-43.12480957 497.08371094 -44.06211914 496.91742188 -45.02783203 496.74609375 C-78.64202473 490.5961144 -112.31173853 477.20742923 -140.1875 457.25 C-141.11820312 456.59257812 -142.04890625 455.93515625 -143.0078125 455.2578125 C-162.41387142 441.36545277 -180.47405043 425.0926237 -195.1875 406.25 C-195.96480469 405.28964844 -196.74210937 404.32929688 -197.54296875 403.33984375 C-237.98679743 352.47963948 -254.62548653 286.37249278 -248.41381836 222.15209961 C-241.88370186 165.88600197 -217.03127944 115.97387871 -178.1875 75.25 C-177.63400879 74.66782715 -177.08051758 74.0856543 -176.51025391 73.48583984 C-168.29944745 64.90448 -159.7414509 57.29676105 -150.1875 50.25 C-149.55537598 49.77353027 -148.92325195 49.29706055 -148.27197266 48.80615234 C-136.57971262 40.01595932 -124.19609133 32.91102568 -111.1875 26.25 C-110.05828125 25.66992188 -110.05828125 25.66992188 -108.90625 25.078125 C-75.11240223 7.93271694 -37.75404279 0.03116327 0 0 Z " fill="#1C1B6C" transform="translate(249.1875,-0.25)"/>
<path d="M0 0 C0.74272156 -0.00067474 1.48544312 -0.00134949 2.25067139 -0.00204468 C15.94083473 0.01754461 29.29604577 0.96692145 42.8125 3.25 C43.80362793 3.41628906 44.79475586 3.58257812 45.81591797 3.75390625 C79.04767158 9.54920641 114.81437367 22.54175974 141.8125 43.25 C143.64471215 44.56406469 145.47810135 45.87648933 147.3125 47.1875 C157.02444025 54.29778445 166.09481771 61.95502484 174.8125 70.25 C175.38049316 70.78931152 175.94848633 71.32862305 176.53369141 71.88427734 C184.57276638 79.57237861 191.84050433 87.54067132 198.48144531 96.46582031 C199.8339254 98.27871915 201.20843443 100.07325243 202.5859375 101.8671875 C209.4438496 110.89277532 215.35862898 120.31708188 220.8125 130.25 C221.15877441 130.87922363 221.50504883 131.50844727 221.86181641 132.15673828 C232.27201851 151.3580033 239.87067725 172.0033351 244.8125 193.25 C245.10979004 194.52351318 245.10979004 194.52351318 245.41308594 195.82275391 C259.80335458 258.95308085 247.98519747 326.83785075 214.25878906 381.95361328 C211.06744596 387.02075933 207.64230714 391.88776202 204.02148438 396.65576172 C202.79616584 398.27153919 201.59263614 399.90198894 200.390625 401.53515625 C194.38523433 409.61157828 187.78757823 417.00341148 180.8125 424.25 C180.26045898 424.82927246 179.70841797 425.40854492 179.13964844 426.00537109 C171.45606348 434.03781099 163.49926193 441.29290435 154.57910156 447.92773438 C152.81428942 449.24866065 151.07443514 450.59781837 149.3359375 451.953125 C107.34648838 484.24959082 54.19260296 500.46197712 1.625 500.5 C0.78379608 500.50067474 -0.05740784 500.50134949 -0.92410278 500.50204468 C-14.87105911 500.4843394 -28.43844859 499.75117032 -42.1875 497.25 C-43.12480957 497.08371094 -44.06211914 496.91742188 -45.02783203 496.74609375 C-78.64202473 490.5961144 -112.31173853 477.20742923 -140.1875 457.25 C-141.11820312 456.59257812 -142.04890625 455.93515625 -143.0078125 455.2578125 C-162.41387142 441.36545277 -180.47405043 425.0926237 -195.1875 406.25 C-195.96480469 405.28964844 -196.74210937 404.32929688 -197.54296875 403.33984375 C-237.98679743 352.47963948 -254.62548653 286.37249278 -248.41381836 222.15209961 C-241.88370186 165.88600197 -217.03127944 115.97387871 -178.1875 75.25 C-177.63400879 74.66782715 -177.08051758 74.0856543 -176.51025391 73.48583984 C-168.29944745 64.90448 -159.7414509 57.29676105 -150.1875 50.25 C-149.55537598 49.77353027 -148.92325195 49.29706055 -148.27197266 48.80615234 C-136.57971262 40.01595932 -124.19609133 32.91102568 -111.1875 26.25 C-110.05828125 25.66992188 -110.05828125 25.66992188 -108.90625 25.078125 C-75.11240223 7.93271694 -37.75404279 0.03116327 0 0 Z M-100.1875 33.25 C-101.15067139 33.69980225 -101.15067139 33.69980225 -102.13330078 34.15869141 C-118.29057698 41.7533743 -133.36617561 50.94486544 -147.1875 62.25 C-148.17234375 63.03117187 -149.1571875 63.81234375 -150.171875 64.6171875 C-164.87343944 76.59485802 -178.8691509 90.21878113 -190.00048828 105.60986328 C-191.2199619 107.29485378 -192.4655705 108.95810946 -193.71484375 110.62109375 C-229.99735789 159.47178714 -244.63322318 222.42901335 -236.59350586 282.47338867 C-236.15934286 285.405851 -235.6862447 288.32786127 -235.1875 291.25 C-235.02652832 292.19810547 -234.86555664 293.14621094 -234.69970703 294.12304688 C-228.03696614 331.62896579 -211.48470353 368.81523198 -187.1875 398.25 C-186.40761719 399.23226563 -185.62773437 400.21453125 -184.82421875 401.2265625 C-172.40363241 416.48669191 -158.23577306 430.81977295 -142.1875 442.25 C-141.56456055 442.70133301 -140.94162109 443.15266602 -140.29980469 443.61767578 C-106.51509053 468.00281382 -68.38997254 482.66232454 -27.1875 488.25 C-26.42203857 488.3545752 -25.65657715 488.45915039 -24.86791992 488.56689453 C-16.61318063 489.54255777 -8.30072048 489.49367339 0 489.5 C0.79762756 489.50067474 1.59525513 489.50134949 2.41705322 489.50204468 C15.74934799 489.48419444 28.68484693 488.73207785 41.8125 486.25 C42.68874023 486.08902832 43.56498047 485.92805664 44.46777344 485.76220703 C82.13141439 478.62052211 119.14291123 462.7410385 148.8125 438.25 C149.79476563 437.47011719 150.77703125 436.69023437 151.7890625 435.88671875 C167.05318102 423.46288557 181.36879428 409.29291656 192.8125 393.25 C193.25851562 392.63769531 193.70453125 392.02539062 194.1640625 391.39453125 C201.60060411 381.15370718 207.97589958 370.47331118 213.8125 359.25 C214.19647949 358.52006836 214.58045898 357.79013672 214.97607422 357.03808594 C225.6638366 336.48294379 232.64643351 314.00281156 236.8125 291.25 C236.97476074 290.38117188 237.13702148 289.51234375 237.30419922 288.6171875 C247.8648846 229.50350584 233.02463577 165.39945038 199.10888672 116.10742188 C195.80784119 111.37778828 192.3982274 106.76764622 188.8125 102.25 C188.05324219 101.28578125 187.29398437 100.3215625 186.51171875 99.328125 C174.01230072 84.01002017 159.80464274 69.8880479 143.8125 58.25 C142.50925781 57.23679687 142.50925781 57.23679687 141.1796875 56.203125 C132.61922392 49.65842807 123.23062168 44.44254538 113.8125 39.25 C113.14089844 38.87842773 112.46929687 38.50685547 111.77734375 38.12402344 C88.76106502 25.56431898 62.64698034 17.45820554 36.8125 13.25 C35.60722656 13.04503906 34.40195312 12.84007812 33.16015625 12.62890625 C-11.76273547 5.91673992 -59.34282578 13.90801653 -100.1875 33.25 Z " fill="#FAF9FA" transform="translate(249.1875,-0.25)"/>
<path d="M0 0 C1.10093994 0.01208496 2.20187988 0.02416992 3.33618164 0.03662109 C10.99271819 0.22418379 17.6719897 0.9378622 24.5625 4.5 C25.41199219 4.9125 26.26148438 5.325 27.13671875 5.75 C40.36872619 12.8827207 48.58661113 24.31628129 53 38.5 C55.62715005 52.16118028 53.09512612 66.79919615 45.5625 78.5 C36.19044873 90.57793988 24.63856588 98.7157955 9.30078125 101.2109375 C-6.20185353 102.84744959 -20.00907744 100.39686145 -33.01953125 91.48046875 C-37.0151038 88.20784309 -40.17681175 84.49895728 -43.4375 80.5 C-43.7675 86.77 -44.0975 93.04 -44.4375 99.5 C-66.5475 99.5 -88.6575 99.5 -111.4375 99.5 C-111.4375 67.16 -111.4375 34.82 -111.4375 1.5 C-103.1875 1.5 -94.9375 1.5 -86.4375 1.5 C-86.4375 26.58 -86.4375 51.66 -86.4375 77.5 C-73.2375 77.17 -60.0375 76.84 -46.4375 76.5 C-47.7575 73.53 -49.0775 70.56 -50.4375 67.5 C-54.29033905 56.75131525 -54.5083349 41.39120393 -49.7578125 30.91015625 C-49.32210937 30.11480469 -48.88640625 29.31945312 -48.4375 28.5 C-47.93992188 27.57058594 -47.44234375 26.64117187 -46.9296875 25.68359375 C-36.95589811 8.63537236 -19.50514863 -0.34337422 0 0 Z " fill="#FBFBFC" transform="translate(276.4375,179.5)"/>
<path d="M0 0 C64.02 0 128.04 0 194 0 C194 15.51 194 31.02 194 47 C129.98 47 65.96 47 0 47 C0 31.49 0 15.98 0 0 Z " fill="#F7F7F9" transform="translate(80,292)"/>
<path d="M0 0 C8.971875 -0.0825 17.94375 -0.165 27.1875 -0.25 C29.9927417 -0.28641602 32.7979834 -0.32283203 35.68823242 -0.36035156 C37.95230345 -0.37205178 40.21638301 -0.38224043 42.48046875 -0.390625 C44.19441833 -0.4213208 44.19441833 -0.4213208 45.94299316 -0.45263672 C56.06897296 -0.45694794 67.05768394 1.21997409 75 8 C80.39626918 13.46020601 82.1220925 17.01344251 82.3125 24.75 C82.22384613 30.36247202 81.7125012 34.64387422 78 39 C74.82168484 41.60542136 71.50533846 43.85933529 68 46 C68.51949219 46.23074219 69.03898437 46.46148437 69.57421875 46.69921875 C75.83758148 49.62829596 80.89590039 53.33439297 84.26953125 59.5859375 C86.33182824 66.40144307 86.37892332 76.00780851 83.5 82.5625 C78.10852984 91.04283328 70.55293104 94.70729655 61 97 C54.50412637 98.20461592 48.09591547 98.1274971 41.50390625 98.09765625 C40.44941284 98.09664917 39.39491943 98.09564209 38.30847168 98.09460449 C34.39313662 98.08939737 30.47781715 98.0754362 26.5625 98.0625 C17.796875 98.041875 9.03125 98.02125 0 98 C0 65.66 0 33.32 0 0 Z " fill="#FCFDFD" transform="translate(78,181)"/>
<path d="M0 0 C25.88530812 -2.53252309 25.88530812 -2.53252309 32.28955078 1.40917969 C35.67734162 5.03579651 37.46603971 9.34714005 39.17041016 13.95605469 C40.38941298 16.95943656 42.1966224 19.41142349 44.125 22 C44.68445313 22.78375 45.24390625 23.5675 45.8203125 24.375 C46.20960938 24.91125 46.59890625 25.4475 47 26 C51.04282254 22.39682246 53.69276431 18.09753441 56.5625 13.5625 C57.04396484 12.81162109 57.52542969 12.06074219 58.02148438 11.28710938 C60.84809353 6.90823571 60.84809353 6.90823571 63.21777344 2.27636719 C65 0 65 0 68.1862793 -0.56762695 C69.46929932 -0.54144287 70.75231934 -0.51525879 72.07421875 -0.48828125 C72.7580513 -0.48120651 73.44188385 -0.47413177 74.1464386 -0.46684265 C76.32791159 -0.43888004 78.50680494 -0.37615064 80.6875 -0.3125 C82.1672806 -0.28741897 83.64710149 -0.26460544 85.12695312 -0.24414062 C88.75213863 -0.18905135 92.37581753 -0.10277108 96 0 C91.23012544 7.63421725 86.23553488 15.07172341 81.0625 22.4375 C79.65984055 24.45420755 78.25749352 26.47113242 76.85546875 28.48828125 C74.63601332 31.67379549 72.39952402 34.84260263 70.11328125 37.98046875 C69.00533203 39.53701172 69.00533203 39.53701172 67.875 41.125 C67.25367188 41.97320312 66.63234375 42.82140625 65.9921875 43.6953125 C64.7477757 45.96720507 64.7477757 45.96720507 65.53125 48.39453125 C67.34881112 51.61876866 69.42566185 54.59347599 71.625 57.5625 C72.54057534 58.82051494 73.45461921 60.07964579 74.3671875 61.33984375 C74.81803711 61.9622998 75.26888672 62.58475586 75.73339844 63.22607422 C77.46643246 65.65325719 79.11216659 68.13279894 80.75 70.625 C85.16124413 77.32389346 89.7930805 83.86560378 94.42871094 90.41064453 C95.01942383 91.24837402 95.61013672 92.08610352 96.21875 92.94921875 C96.75435547 93.70549561 97.28996094 94.46177246 97.84179688 95.2409668 C99 97 99 97 99 98 C72.58034477 100.68423308 72.58034477 100.68423308 65.48291016 96.52490234 C61.59846058 92.72880264 59.2691882 88.1487539 57.05712891 83.23681641 C55.46432876 79.8665543 53.39295865 76.9858313 51.25 73.9375 C50.16417302 72.29331077 49.07974073 70.64819247 48 69 C45.16310552 71.58895676 43.16278355 74.5482625 41.0234375 77.7265625 C40.65272125 78.27484711 40.282005 78.82313171 39.90005493 79.38803101 C38.72189572 81.13159237 37.54824354 82.87812795 36.375 84.625 C35.19384907 86.37848097 34.01176266 88.13132102 32.82852173 89.88339233 C31.75931243 91.46739637 30.69282357 93.0532357 29.62646484 94.63916016 C28 97 28 97 27 98 C24.78144736 98.08783542 22.56011504 98.10694609 20.33984375 98.09765625 C19.34314415 98.09553383 19.34314415 98.09553383 18.3263092 98.09336853 C16.19666101 98.08775518 14.06711661 98.07520054 11.9375 98.0625 C10.49674631 98.05748671 9.05599097 98.05292351 7.61523438 98.04882812 C4.07678898 98.03778145 0.53840461 98.02050792 -3 98 C1.16498217 91.32984673 5.45860956 84.82848338 10.125 78.5 C14.91469442 71.91708812 19.65995764 65.30570572 24.3125 58.625 C24.88178223 57.82255859 25.45106445 57.02011719 26.03759766 56.19335938 C26.55757324 55.44119141 27.07754883 54.68902344 27.61328125 53.9140625 C28.30611206 52.9233374 28.30611206 52.9233374 29.01293945 51.91259766 C30.30574076 49.76628898 30.30574076 49.76628898 30 46 C28.64796427 43.65673031 27.26737794 41.49469807 25.72265625 39.28515625 C25.27788437 38.6335704 24.83311249 37.98198456 24.37486267 37.31065369 C22.94601821 35.22187544 21.50451808 33.14219927 20.0625 31.0625 C19.12611065 29.69784332 18.19055523 28.33261404 17.25585938 26.96679688 C13.63201221 21.68064178 9.9951342 16.40432843 6.30029297 11.16748047 C5.87944931 10.56818222 5.45860565 9.96888397 5.02500916 9.35142517 C3.88032289 7.7231273 2.73025568 6.098616 1.57983398 4.47436523 C0 2 0 2 0 0 Z " fill="#FBFCFD" transform="translate(323,181)"/>
<path d="M0 0 C8.25 0 16.5 0 25 0 C25 25.41 25 50.82 25 77 C38.53 77 52.06 77 66 77 C66 83.93 66 90.86 66 98 C44.22 98 22.44 98 0 98 C0 65.66 0 33.32 0 0 Z " fill="#FEFEFE" transform="translate(165,181)"/>
<path d="M0 0 C6.99450518 4.23909405 11.78086452 9.21379717 14.0625 17.25 C15.28738876 26.1735578 15.25742313 35.58668172 10.0625 43.25 C9.62679687 43.89324219 9.19109375 44.53648437 8.7421875 45.19921875 C4.56563486 50.6424308 -0.53897409 53.11715803 -6.9375 55.25 C-15.03548575 56.19319302 -21.23275376 54.9524756 -27.9375 50.25 C-34.49430032 44.58502501 -38.15010768 37.69327737 -39.38671875 29.14453125 C-39.89135627 19.75827337 -37.23569518 12.13865431 -31.00390625 5.05078125 C-22.06588552 -3.26000995 -11.07277768 -5.69457138 0 0 Z " fill="#1C1B68" transform="translate(288.9375,203.75)"/>
<path d="M0 0 C5.81674566 3.79352978 9.31067274 8.49512731 11.75 15 C12.66285032 22.30280253 11.69605267 28.72495076 7.74609375 34.98828125 C2.91012734 41.14194968 -3.4882429 44.21117969 -11.15625 45.30859375 C-18.79839463 45.7289117 -24.77571472 43.39730082 -31 39 C-37.04844659 32.35474274 -38.51278469 25.98713175 -38.39453125 17.171875 C-37.72751104 11.80929665 -35.6015 7.98358448 -32 4 C-22.16310618 -3.4882401 -11.3665958 -5.61991539 0 0 Z " fill="#F7F7FB" transform="translate(411,294)"/>
<path d="M0 0 C6.1875 -0.0928125 6.1875 -0.0928125 12.5 -0.1875 C13.78455078 -0.21481201 15.06910156 -0.24212402 16.39257812 -0.27026367 C30.40566812 -0.37163403 30.40566812 -0.37163403 35.54858398 4.45263672 C39.69377029 9.2572348 40.28475686 12.30907077 40.22265625 18.45703125 C39.84839562 22.73148158 38.1364698 25.63623624 35.4375 28.875 C34 30 34 30 32 30 C32.97453125 31.60681641 32.97453125 31.60681641 33.96875 33.24609375 C34.81261525 34.64315956 35.656359 36.04029876 36.5 37.4375 C36.92925781 38.14455078 37.35851562 38.85160156 37.80078125 39.58007812 C41 44.88671875 41 44.88671875 41 46 C36.38 46 31.76 46 27 46 C26.195625 44.040625 25.39125 42.08125 24.5625 40.0625 C22.51532839 35.57756809 22.51532839 35.57756809 18.59765625 32.98046875 C15.85234856 32.66104106 15.85234856 32.66104106 12 33 C12 37.29 12 41.58 12 46 C8.04 46 4.08 46 0 46 C0 30.82 0 15.64 0 0 Z " fill="#FAFBFC" transform="translate(328,292)"/>
<path d="M0 0 C6.1875 -0.0928125 6.1875 -0.0928125 12.5 -0.1875 C13.78455078 -0.21481201 15.06910156 -0.24212402 16.39257812 -0.27026367 C22.99200517 -0.31800377 28.05657269 0.0388119 34 3 C38.73738669 7.9803296 39.36611569 11.40602057 39.26953125 18.10546875 C38.79669594 23.18330877 37.28959504 26.9222955 33.48046875 30.37890625 C27.10243194 34.3669162 19.22104788 33.33848662 12 33 C12 37.29 12 41.58 12 46 C8.04 46 4.08 46 0 46 C0 30.82 0 15.64 0 0 Z " fill="#F7F8FA" transform="translate(283,292)"/>
<path d="M0 0 C2.8938262 2.74272389 5.16315132 5.51240413 7.34765625 8.84375 C7.95287109 9.76027344 8.55808594 10.67679688 9.18164062 11.62109375 C9.80232422 12.57113281 10.42300781 13.52117187 11.0625 14.5 C12.30239253 16.38606976 13.54324273 18.27151038 14.78515625 20.15625 C15.33051025 20.98962891 15.87586426 21.82300781 16.43774414 22.68164062 C17.89450059 24.84344079 19.41588792 26.93032377 21 29 C16.1596427 39.27976871 8.54487095 48.52653639 1.98828125 57.7734375 C-2.05634317 63.4821136 -6.03176455 69.23804196 -10 75 C-10.763125 74.175 -11.52625 73.35 -12.3125 72.5 C-14.75434142 69.65944803 -14.75434142 69.65944803 -18 70 C-18.33 70.99 -18.66 71.98 -19 73 C-19.9590625 73.2165625 -19.9590625 73.2165625 -20.9375 73.4375 C-21.618125 73.623125 -22.29875 73.80875 -23 74 C-24.09166275 75.93330603 -24.09166275 75.93330603 -25 78 C-27.91765 79.9451 -29.62537285 80.45276317 -33 81 C-33.33 80.34 -33.66 79.68 -34 79 C-32.75854645 75.27563934 -31.81327619 75.11119601 -28.4375 73.3125 C-17.39220735 66.89961254 -10.36532321 57.34199614 -6.54296875 45.203125 C-3.81354455 34.12833903 -4.42633809 23.45471266 -7.5390625 12.546875 C-7.69117188 11.70640625 -7.84328125 10.8659375 -8 10 C-7.34 9.34 -6.68 8.68 -6 8 C-6.33 7.01 -6.66 6.02 -7 5 C-6.34 4.34 -5.68 3.68 -5 3 C-4.67 4.32 -4.34 5.64 -4 7 C-2.68 7 -1.36 7 0 7 C-0.185625 6.401875 -0.37125 5.80375 -0.5625 5.1875 C-1 3 -1 3 0 0 Z " fill="#222175" transform="translate(334,199)"/>
<path d="M0 0 C2.31 0.66 4.62 1.32 7 2 C7 1.34 7 0.68 7 0 C8.98 0 10.96 0 13 0 C13 0.33 13 0.66 13 1 C18.61 1.33 24.22 1.66 30 2 C30 2.33 30 2.66 30 3 C22.74 3 15.48 3 8 3 C8 18.18 8 33.36 8 49 C11.96 49 15.92 49 20 49 C20 44.71 20 40.42 20 36 C21.03640625 35.93941406 22.0728125 35.87882812 23.140625 35.81640625 C24.51042873 35.73196629 25.88021975 35.64732003 27.25 35.5625 C27.93191406 35.52318359 28.61382812 35.48386719 29.31640625 35.44335938 C32.64448041 35.23333528 35.80255402 34.98065998 39 34 C39.33 34.99 39.66 35.98 40 37 C36.37710825 38.01440969 32.72118378 38.47772859 29 39 C27.33065717 39.31966139 25.6626783 39.64731066 24 40 C23.04544554 43.49441745 23.04544554 43.49441745 23.75 46.9375 C24 49 24 49 21.875 52.1875 C19.47948819 54.85141649 17.66128752 55.79078357 14 56 C13.67 56.99 13.34 57.98 13 59 C11.68 59 10.36 59 9 59 C8.87625 58.443125 8.7525 57.88625 8.625 57.3125 C7.92239096 54.71284654 7.23342762 52.401938 6 50 C3.95894361 49.11306697 3.95894361 49.11306697 2 49 C1.34 50.32 0.68 51.64 0 53 C-0.66 52.34 -1.32 51.68 -2 51 C-1.67 35.16 -1.34 19.32 -1 3 C-65.02 3 -129.04 3 -195 3 C-195 2.67 -195 2.34 -195 2 C-194.00109773 1.99576806 -193.00219545 1.99153612 -191.97302341 1.98717594 C-167.70479963 1.88413455 -143.43660645 1.77540602 -119.1684351 1.66066074 C-107.43269424 1.60530422 -95.69695034 1.5518183 -83.96118164 1.50268555 C-73.73626253 1.4598734 -63.51136603 1.41360303 -53.2864818 1.36312145 C-47.86890807 1.33649651 -42.4513389 1.31164293 -37.03373909 1.29092598 C-31.9407948 1.27139599 -26.84789363 1.24726334 -21.75498772 1.21950912 C-19.88001155 1.21011934 -18.00502589 1.20245106 -16.1300354 1.19658089 C-13.58172403 1.1883523 -11.03351826 1.1740851 -8.48524475 1.15821838 C-7.73331362 1.15724028 -6.9813825 1.15626217 -6.20666558 1.15525442 C-2.81602372 1.42774662 -2.81602372 1.42774662 0 0 Z " fill="#312F7E" transform="translate(275,289)"/>
<path d="M0 0 C0.33 0 0.66 0 1 0 C1.96555655 9.43438564 2.24221409 18.83586295 2.25 28.3125 C2.25067474 29.05777954 2.25134949 29.80305908 2.25204468 30.57092285 C2.23346679 43.57405267 1.39160574 56.19410312 -1 69 C-1.16097168 69.87914062 -1.32194336 70.75828125 -1.48779297 71.6640625 C-8.66115053 109.48095614 -24.57308841 146.13637769 -49 176 C-49.78117187 176.98484375 -50.56234375 177.9696875 -51.3671875 178.984375 C-61.43076101 191.33654934 -73.00279488 204.71909105 -86 214 C-86.99 213.67 -87.98 213.34 -89 213 C-87.87410807 209.6223242 -86.68056948 208.28636808 -84 206 C-83.01 206 -82.02 206 -81 206 C-80.01 204.02 -80.01 204.02 -79 202 C-78.34 202 -77.68 202 -77 202 C-77 200.68 -77 199.36 -77 198 C-77.66 197.67 -78.32 197.34 -79 197 C-76.62216162 194.62216162 -75.27926335 194.40990792 -72 194 C-71.34 194.33 -70.68 194.66 -70 195 C-69.34 193.02 -68.68 191.04 -68 189 C-66.35 189 -64.7 189 -63 189 C-63 188.01 -63 187.02 -63 186 C-61.02 185.01 -61.02 185.01 -59 184 C-60.32 182.68 -61.64 181.36 -63 180 C-59.52176885 178.84058962 -57.54104422 179.29179116 -54 180 C-53.67 178.68 -53.34 177.36 -53 176 C-53.66 176 -54.32 176 -55 176 C-54.34 174.35 -53.68 172.7 -53 171 C-52.01 171 -51.02 171 -50 171 C-49.01 170.67 -48.02 170.34 -47 170 C-46.505 166.04 -46.505 166.04 -46 162 C-44.02 161.67 -42.04 161.34 -40 161 C-38.51844938 155.159389 -38.51844938 155.159389 -38 149.1875 C-38 146.6258796 -37.29224615 145.18066537 -36 143 C-35.67 144.32 -35.34 145.64 -35 147 C-34.01 146.67 -33.02 146.34 -32 146 C-31.26676204 143.98491642 -31.26676204 143.98491642 -31 142 C-30.34 142 -29.68 142 -29 142 C-29.99 140.02 -29.99 140.02 -31 138 C-29.68 137.67 -28.36 137.34 -27 137 C-26.67 135.35 -26.34 133.7 -26 132 C-25.01 131.67 -24.02 131.34 -23 131 C-23.061875 130.05125 -23.12375 129.1025 -23.1875 128.125 C-23.0946875 126.578125 -23.0946875 126.578125 -23 125 C-22.01 124.34 -21.02 123.68 -20 123 C-19.27617533 120.94074861 -19.27617533 120.94074861 -19 119 C-18.34 119 -17.68 119 -17 119 C-16.92652344 118.1646875 -16.92652344 118.1646875 -16.8515625 117.3125 C-16.33444423 112.03432735 -15.39537537 107.11637635 -14 102 C-13.34 102 -12.68 102 -12 102 C-12.66 100.35 -13.32 98.7 -14 97 C-13.34 96.67 -12.68 96.34 -12 96 C-11.34227572 92.97065509 -11.34227572 92.97065509 -11 90 C-10.34 90 -9.68 90 -9 90 C-7.35 84.06 -5.7 78.12 -4 72 C-4.66 72 -5.32 72 -6 72 C-6.1875 69.625 -6.1875 69.625 -6 67 C-5.01 66.34 -4.02 65.68 -3 65 C-2.45357139 62.70935631 -2.45357139 62.70935631 -2.375 60.125 C-2.06802235 55.22797557 -2.06802235 55.22797557 -1.48876953 53.28662109 C-0.81366763 50.12827723 -0.92784144 47.13475394 -0.96875 43.90625 C-1.04001868 34.76221403 -0.78421682 25.63881049 -0.5 16.5 C-0.45160501 14.88672527 -0.40342695 13.27344402 -0.35546875 11.66015625 C-0.23946623 7.77335816 -0.12057621 3.88665878 0 0 Z " fill="#37349E" transform="translate(487,222)"/>
<path d="M0 0 C4.37566252 -0.10804105 8.74865081 -0.18735287 13.125 -0.25 C14.3625 -0.28351563 15.6 -0.31703125 16.875 -0.3515625 C28.34281801 -0.47487237 28.34281801 -0.47487237 33 4 C34.55024464 7.10048928 34.28992015 9.57894218 34 13 C31.80905973 16.52115401 29.8400218 18.49865698 26 20 C23.15917969 20.22705078 23.15917969 20.22705078 19.921875 20.1953125 C18.18164062 20.18564453 18.18164062 20.18564453 16.40625 20.17578125 C15.1996875 20.15902344 13.993125 20.14226562 12.75 20.125 C10.91695312 20.11146484 10.91695312 20.11146484 9.046875 20.09765625 C6.03116634 20.07409603 3.01555842 20.03822539 0 20 C0 13.4 0 6.8 0 0 Z " fill="#17164D" transform="translate(103,239)"/>
<path d="M0 0 C4.04278926 -0.13516012 8.08104554 -0.23421548 12.125 -0.3125 C13.83816406 -0.3753418 13.83816406 -0.3753418 15.5859375 -0.43945312 C25.09396758 -0.57765124 25.09396758 -0.57765124 28.76171875 2.26953125 C31.50747247 5.61906327 31.84435834 6.9255484 31.53125 11.06640625 C30.62522248 14.36407994 28.64276543 15.97183118 26 18 C22.94080612 19.01973129 20.87581975 19.11533602 17.67578125 19.09765625 C16.64775391 19.09443359 15.61972656 19.09121094 14.56054688 19.08789062 C13.48869141 19.07951172 12.41683594 19.07113281 11.3125 19.0625 C10.22904297 19.05798828 9.14558594 19.05347656 8.02929688 19.04882812 C5.35284106 19.03703757 2.67641361 19.01910208 0 19 C0 12.73 0 6.46 0 0 Z " fill="#141445" transform="translate(103,201)"/>
<path d="M0 0 C3.54254148 2.23334137 5.40928423 4.16686553 7 8 C7.78778935 13.62706678 7.20098795 18.19851807 4 23 C0.24509509 26.39729491 -2.60632874 26.57026858 -7.5234375 26.41796875 C-11.64831619 25.72181415 -13.23092204 24.11521271 -16 21 C-18.28466838 17.05375462 -18.47409741 13.50392543 -18 9 C-13.51321704 0.954734 -9.38590307 -2.38313945 0 0 Z " fill="#282692" transform="translate(403,302)"/>
<path d="M0 0 C2.0625 0.4375 2.0625 0.4375 4 1 C4.33 2.32 4.66 3.64 5 5 C-20.82447518 20.53808759 -49.1385478 32.17651796 -79 37 C-79.80695313 37.14518066 -80.61390625 37.29036133 -81.4453125 37.43994141 C-107.05822581 41.99759093 -134.4450331 41.72823176 -160 37 C-156.7317333 35.01623812 -154.64103206 34.8459617 -150.875 35.3125 C-150.00617188 35.41175781 -149.13734375 35.51101563 -148.2421875 35.61328125 C-146 36 -146 36 -144 37 C-144 36.34 -144 35.68 -144 35 C-141 36 -141 36 -140 37 C-137.00269496 37.11379508 -134.02936442 37.16420013 -131.03125 37.16796875 C-129.66703918 37.17296135 -129.66703918 37.17296135 -128.27526855 37.17805481 C-126.34172065 37.18313167 -124.40816394 37.1854629 -122.47460938 37.18530273 C-119.54021289 37.1874703 -116.60620393 37.20556493 -113.671875 37.22460938 C-111.79166795 37.22754707 -109.91145911 37.22952935 -108.03125 37.23046875 C-107.16213989 37.23765427 -106.29302979 37.24483978 -105.39758301 37.25224304 C-100.35828432 37.23371888 -95.82651956 36.69787284 -90.94567871 35.42329407 C-89 35 -89 35 -85.625 35.0625 C-82.96628642 35.28135126 -82.96628642 35.28135126 -81.375 33.5625 C-80.92125 33.046875 -80.4675 32.53125 -80 32 C-78.125 31.1875 -78.125 31.1875 -76 31 C-74.9171875 31.5259375 -74.9171875 31.5259375 -73.8125 32.0625 C-69.58398862 33.47200379 -66.20351737 32.13259329 -62 31 C-60.33465333 30.66013333 -58.66870487 30.32297514 -57 30 C-57 29.34 -57 28.68 -57 28 C-51.58823529 24 -51.58823529 24 -49 24 C-49 24.99 -49 25.98 -49 27 C-48.43152344 26.72285156 -47.86304688 26.44570313 -47.27734375 26.16015625 C-43.41766078 24.34952033 -40.33533246 23.0425819 -36.0625 22.5 C-35.051875 22.335 -34.04125 22.17 -33 22 C-31.48705712 20.06402968 -31.48705712 20.06402968 -31 18 C-29.68 18.33 -28.36 18.66 -27 19 C-26.67 18.34 -26.34 17.68 -26 17 C-24.02253397 16.26919734 -22.01927511 15.60578253 -20 15 C-19.01 14.67 -18.02 14.34 -17 14 C-16.16666667 12.08333333 -16.16666667 12.08333333 -16 10 C-16.33 9.34 -16.66 8.68 -17 8 C-15.68 7.34 -14.36 6.68 -13 6 C-12.01 6.66 -11.02 7.32 -10 8 C-6.36060068 7.68269476 -6.36060068 7.68269476 -3 7 C-2.690625 6.030625 -2.38125 5.06125 -2.0625 4.0625 C-1 1 -1 1 0 0 Z " fill="#33319E" transform="translate(370,449)"/>
<path d="M0 0 C3.06471302 1.65023009 5.30778907 3.056076 7.375 5.875 C8.25151896 8.85516446 8.43422592 10.89838626 8 14 C6.17452064 16.92483867 4.13141589 19.43429205 1 21 C-6.08958838 21.5811138 -6.08958838 21.5811138 -9.9375 19.125 C-13.2611691 15.70061366 -13.52160033 12.97843378 -13.4765625 8.33203125 C-12.73809517 4.71838372 -10.85208854 3.14328428 -7.93359375 1.03515625 C-5.00667165 -0.53178184 -3.24504144 -0.69043435 0 0 Z " fill="#101010" transform="translate(213,304)"/>
<path d="M0 0 C11.16564417 -0.49079755 11.16564417 -0.49079755 15.1875 1.875 C18.36147687 5.59621427 18.32944841 8.14063594 18 13 C16.71173074 16.05116403 15.7293747 17.53585246 12.9375 19.3125 C10 20 10 20 0 20 C0 13.4 0 6.8 0 0 Z " fill="#0F0F0F" transform="translate(243,305)"/>
<path d="M0 0 C11.16564417 -0.49079755 11.16564417 -0.49079755 15.1875 1.875 C18.36147687 5.59621427 18.32944841 8.14063594 18 13 C16.71173074 16.05116403 15.7293747 17.53585246 12.9375 19.3125 C10 20 10 20 0 20 C0 13.4 0 6.8 0 0 Z " fill="#0F0F0F" transform="translate(131,305)"/>
<path d="M0 0 C3.375 0.6875 3.375 0.6875 5.875 2.25 C7.375 4.6875 7.375 4.6875 7.625 7.9375 C5.79471198 13.42836406 1.62187482 18.06406259 -3.625 20.6875 C-6.5 21 -6.5 21 -9.625 20.6875 C-12 18.6875 -12 18.6875 -13.625 16.6875 C-15.77067913 18.41605926 -15.77067913 18.41605926 -17.625 20.6875 C-17.48858623 22.90608253 -17.48858623 22.90608253 -16.625 24.6875 C-13.25037285 24.14026317 -11.54265 23.6326 -8.625 21.6875 C-7.635 22.3475 -6.645 23.0075 -5.625 23.6875 C-8.14789139 26.58140483 -9.99971839 28.4530194 -13.625 29.8125 C-16.625 29.6875 -16.625 29.6875 -19.5625 27.6875 C-21.625 24.6875 -21.625 24.6875 -21.9375 21.375 C-20.08088459 16.1587948 -17.07108259 12.94111639 -12.625 9.6875 C-8.8125 8.5625 -8.8125 8.5625 -5.625 8.6875 C-2.625 10.6875 -2.625 10.6875 -1.9375 13.3125 C-1.834375 14.09625 -1.73125 14.88 -1.625 15.6875 C-1.191875 14.759375 -1.191875 14.759375 -0.75 13.8125 C0.375 11.6875 0.375 11.6875 2.375 9.6875 C2.54187448 7.10395782 2.54187448 7.10395782 2.375 4.6875 C-1.55575644 5.26202746 -1.55575644 5.26202746 -4.625 7.6875 C-7.25 7.8125 -7.25 7.8125 -9.625 7.6875 C-4.92120433 0.93333186 -4.92120433 0.93333186 0 0 Z " fill="#111111" transform="translate(109.625,300.3125)"/>
<path d="M0 0 C0.495 1.98 0.495 1.98 1 4 C1.99 4 2.98 4 4 4 C4 4.66 4 5.32 4 6 C3.34 6.33 2.68 6.66 2 7 C2.495 8.485 2.495 8.485 3 10 C-7.74168603 31.89651382 -30.18337287 56.84954916 -50 71 C-50.99 70.67 -51.98 70.34 -53 70 C-51.87410807 66.6223242 -50.68056948 65.28636808 -48 63 C-47.01 63 -46.02 63 -45 63 C-44.34 61.68 -43.68 60.36 -43 59 C-42.34 59 -41.68 59 -41 59 C-41 57.68 -41 56.36 -41 55 C-41.66 54.67 -42.32 54.34 -43 54 C-40.62216162 51.62216162 -39.27926335 51.40990792 -36 51 C-35.34 51.33 -34.68 51.66 -34 52 C-33.34 50.02 -32.68 48.04 -32 46 C-30.35 46 -28.7 46 -27 46 C-27 45.01 -27 44.02 -27 43 C-25.68 42.34 -24.36 41.68 -23 41 C-24.32 39.68 -25.64 38.36 -27 37 C-23.52176885 35.84058962 -21.54104422 36.29179116 -18 37 C-17.67 35.68 -17.34 34.36 -17 33 C-17.66 33 -18.32 33 -19 33 C-18.34 31.35 -17.68 29.7 -17 28 C-16.01 28 -15.02 28 -14 28 C-13.01 27.67 -12.02 27.34 -11 27 C-10.67 24.36 -10.34 21.72 -10 19 C-8.02 18.67 -6.04 18.34 -4 18 C-2.51844938 12.159389 -2.51844938 12.159389 -2 6.1875 C-2 3.6258796 -1.29224615 2.18066537 0 0 Z " fill="#312FA3" transform="translate(451,365)"/>
<path d="M0 0 C0.66 0.33 1.32 0.66 2 1 C-1.9714589 8.5563156 -1.9714589 8.5563156 -6.1875 10.375 C-7.115625 10.58125 -8.04375 10.7875 -9 11 C-9.66 11.66 -10.32 12.32 -11 13 C-11.33 13 -11.66 13 -12 13 C-12.33 13.66 -12.66 14.32 -13 15 C-14.051875 15.8971875 -14.051875 15.8971875 -15.125 16.8125 C-15.74375 17.534375 -16.3625 18.25625 -17 19 C-16.85974801 21.70705512 -16.85974801 21.70705512 -16 24 C-17.32 23.67 -18.64 23.34 -20 23 C-20.33 23.66 -20.66 24.32 -21 25 C-21.495 24.01 -21.495 24.01 -22 23 C-22.474375 23.474375 -22.94875 23.94875 -23.4375 24.4375 C-24.29166667 25.29166667 -25.14583333 26.14583333 -26 27 C-26 28.32 -26 29.64 -26 31 C-27.65 31 -29.3 31 -31 31 C-31.66 32.98 -32.32 34.96 -33 37 C-32.34 37 -31.68 37 -31 37 C-31.33 38.32 -31.66 39.64 -32 41 C-33.98 40.67 -35.96 40.34 -38 40 C-40.45579697 43.68564084 -40.45579697 43.68564084 -41 48 C-43.475 48.495 -43.475 48.495 -46 49 C-46.33 49.99 -46.66 50.98 -47 52 C-49.5625 53.1875 -49.5625 53.1875 -52 54 C-52 54.66 -52 55.32 -52 56 C-52.66 56.639375 -53.32 57.27875 -54 57.9375 C-56.34807292 59.88012332 -56.34807292 59.88012332 -56 63 C-58.475 63.99 -58.475 63.99 -61 65 C-58.63197215 58.0367181 -53.54132576 52.66101682 -49 47 C-48.20722656 45.99839844 -47.41445313 44.99679688 -46.59765625 43.96484375 C-34.1289525 28.69905321 -19.96153664 14.58571765 -4 3 C-2.66561394 2.00140517 -1.33179507 1.00204773 0 0 Z " fill="#080A1E" transform="translate(111,55)"/>
<path d="M0 0 C0.33 0 0.66 0 1 0 C1 15.18 1 30.36 1 46 C-1 43 -1 43 -2.0078125 40.9140625 C-4.94672276 34.89237924 -8.03147184 31.95459943 -14 29 C-14.74121094 28.62746094 -15.48242188 28.25492188 -16.24609375 27.87109375 C-16.82488281 27.58363281 -17.40367187 27.29617187 -18 27 C-15.71726127 25.24404713 -13.51881093 23.72933115 -11 22.3125 C-4.97382281 17.66732175 -3.59639219 11.38029951 -2.4921875 4.1015625 C-2 2 -2 2 0 0 Z " fill="#15134B" transform="translate(163,200)"/>
<path d="M0 0 C1.5 1.3125 1.5 1.3125 3 3 C3 3.99 3 4.98 3 6 C3.66 6.33 4.32 6.66 5 7 C5.33 7.99 5.66 8.98 6 10 C6.99 9.67 7.98 9.34 9 9 C9.99 10.485 9.99 10.485 11 12 C11.66 12.33 12.32 12.66 13 13 C13 13.66 13 14.32 13 15 C13.66 15.33 14.32 15.66 15 16 C14.67515625 16.54011719 14.3503125 17.08023437 14.015625 17.63671875 C11.20943843 24.16649904 12.63595214 32.49886839 15 39 C11.25 40.125 11.25 40.125 9 39 C8.67 38.34 8.34 37.68 8 37 C7.67 38.98 7.34 40.96 7 43 C5.515 43.495 5.515 43.495 4 44 C3.16121545 42.71186658 2.32913217 41.41936744 1.5 40.125 C1.0359375 39.40570313 0.571875 38.68640625 0.09375 37.9453125 C-1 36 -1 36 -1 34 C-0.21625 33.401875 0.5675 32.80375 1.375 32.1875 C4.90166248 29.2486146 5.7606502 27.19833585 6.25390625 22.66796875 C6.52062574 16.92919783 5.9953344 13.42726245 2 9 C-0.42672567 7.21030974 -0.42672567 7.21030974 -3 6 C-3.763125 5.608125 -4.52625 5.21625 -5.3125 4.8125 C-6.1478125 4.4103125 -6.1478125 4.4103125 -7 4 C-4.69 2.68 -2.38 1.36 0 0 Z " fill="#2D2A86" transform="translate(361,288)"/>
<path d="M0 0 C11.48043932 -0.37033675 11.48043932 -0.37033675 13.86328125 1.328125 C15.64212221 3.94442717 15.37697864 5.92134112 15 9 C13.5 11.375 13.5 11.375 12 13 C12.7425 14.175625 12.7425 14.175625 13.5 15.375 C15 18 15 18 15 20 C12.75 20.375 12.75 20.375 10 20 C7.6875 17 7.6875 17 6 14 C5.67 15.98 5.34 17.96 5 20 C3.35 20 1.7 20 0 20 C0 13.4 0 6.8 0 0 Z " fill="#0D0D0D" transform="translate(224,305)"/>
<path d="M0 0 C0.33 0 0.66 0 1 0 C2.25 7.625 2.25 7.625 0 11 C0.66 11 1.32 11 2 11 C2 13.31 2 15.62 2 18 C1.01 17.67 0.02 17.34 -1 17 C-1 16.34 -1 15.68 -1 15 C-1.66 15 -2.32 15 -3 15 C-3.33 15.99 -3.66 16.98 -4 18 C-4.66 18 -5.32 18 -6 18 C-6.33 18.66 -6.66 19.32 -7 20 C-7.66 20 -8.32 20 -9 20 C-9.33 20.66 -9.66 21.32 -10 22 C-10.66 22 -11.32 22 -12 22 C-12.66 22.66 -13.32 23.32 -14 24 C-14 23.34 -14 22.68 -14 22 C-14.59167969 22.23976563 -15.18335938 22.47953125 -15.79296875 22.7265625 C-22.36624569 25.19288175 -22.36624569 25.19288175 -25.875 24.125 C-26.57625 23.75375 -27.2775 23.3825 -28 23 C-31.11785113 23.64644661 -31.11785113 23.64644661 -32 26 C-32.66 26 -33.32 26 -34 26 C-34 25.34 -34 24.68 -34 24 C-34.66 24 -35.32 24 -36 24 C-36.33 22.35 -36.66 20.7 -37 19 C-39.97 18.67 -42.94 18.34 -46 18 C-46.625 15.6875 -46.625 15.6875 -47 13 C-46.34 12.01 -45.68 11.02 -45 10 C-44.38125 10.721875 -43.7625 11.44375 -43.125 12.1875 C-38.17160164 17.07113218 -31.93478135 20.27111697 -24.9375 20.5 C-17.05430712 20.04210654 -10.53858299 17.7961915 -5 12 C-2.62291873 8.17533719 -0.98822924 4.39321713 0 0 Z " fill="#2E2C95" transform="translate(422,318)"/>
<path d="M0 0 C10.57142857 -0.42857143 10.57142857 -0.42857143 16 3 C16.36681223 10.45851528 16.36681223 10.45851528 14.6875 12.9375 C11.39585455 15.0100175 8.59067193 15.11156717 4.8125 15.0625 C3.224375 15.041875 1.63625 15.02125 0 15 C0 10.05 0 5.1 0 0 Z " fill="#2E2C86" transform="translate(340,301)"/>
<path d="M0 0 C8.96624473 -0.35864979 8.96624473 -0.35864979 13.0625 1.0625 C15 3 15 3 16.125 6.375 C16 10 16 10 14.25 12.9375 C9.40587824 16.0116542 5.67412404 15.3418147 0 15 C0 10.05 0 5.1 0 0 Z " fill="#211F7D" transform="translate(295,301)"/>
<path d="M0 0 C2.97 0 5.94 0 9 0 C10.00508801 1.78881736 11.00392736 3.58114696 12 5.375 C12.556875 6.37273437 13.11375 7.37046875 13.6875 8.3984375 C15 11 15 11 15 13 C17.27113803 12.85899143 19.54190725 12.71203245 21.8125 12.5625 C23.07707031 12.48128906 24.34164063 12.40007812 25.64453125 12.31640625 C28.99181893 12.12815453 28.99181893 12.12815453 32 11 C31.67 11.99 31.34 12.98 31 14 C28 15 28 15 25.125 14.8125 C21.8592117 14.7056805 21.8592117 14.7056805 19.4375 17.0625 C17 19 17 19 14.1875 18.75 C13.465625 18.5025 12.74375 18.255 12 18 C12.185625 17.4225 12.37125 16.845 12.5625 16.25 C13.04023546 13.79307475 12.75729364 12.35602466 12 10 C9.23723823 10.52268466 6.6739124 11.10869587 4 12 C3.71125 12.639375 3.4225 13.27875 3.125 13.9375 C1.60901352 16.71680854 -0.05867273 17.07115981 -3 18 C-3.33 16.68 -3.66 15.36 -4 14 C-2.68 14 -1.36 14 0 14 C0 9.38 0 4.76 0 0 Z " fill="#2E2C89" transform="translate(340,325)"/>
<path d="M0 0 C2.5 1.875 2.5 1.875 4 4 C4 4.99 4 5.98 4 7 C1.625 7.125 1.625 7.125 -1 7 C-1.66 6.34 -2.32 5.68 -3 5 C-5.54190002 4.7499227 -5.54190002 4.7499227 -8 5 C-9.23267348 6.00836062 -9.23267348 6.00836062 -9.09765625 8.06640625 C-9.08605469 8.89011719 -9.07445312 9.71382813 -9.0625 10.5625 C-9.05347656 11.38878906 -9.04445312 12.21507812 -9.03515625 13.06640625 C-9.02355469 13.70449219 -9.01195312 14.34257812 -9 15 C-4.65815798 14.81535634 -4.65815798 14.81535634 -1 13 C0.66617115 12.95936168 2.33388095 12.957279 4 13 C2.55813953 17.56589147 2.55813953 17.56589147 0.3125 19.3125 C-2.98491604 20.29281288 -5.57543187 20.36048086 -9 20 C-11.75329021 18.20437595 -13.52627461 16.94745078 -15 14 C-15.42071592 10.94079426 -15.48514117 8.0532254 -15 5 C-10.49491041 -0.69063949 -6.98895726 -1.80939407 0 0 Z " fill="#0F0F0F" transform="translate(193,305)"/>
<path d="M0 0 C2.3125 0.75 2.3125 0.75 4 2 C4.75 4.125 4.75 4.125 5 6 C3.02 6 1.04 6 -1 6 C-1 5.34 -1 4.68 -1 4 C-1.99 4.33 -2.98 4.66 -4 5 C-4 5.66 -4 6.32 -4 7 C-3.43410156 7.27714844 -2.86820313 7.55429687 -2.28515625 7.83984375 C-1.55167969 8.20207031 -0.81820312 8.56429688 -0.0625 8.9375 C1.03384766 9.47697266 1.03384766 9.47697266 2.15234375 10.02734375 C4 11 4 11 5 12 C5.3125 14.875 5.3125 14.875 5 18 C2.67097984 20.79482419 1.12036325 20.98495459 -2.5 21.4375 C-6 21 -6 21 -8.4375 19.125 C-10 17 -10 17 -10 15 C-6.14354879 14.77963136 -3.50776784 15.39644899 0 17 C-0.33 16.01 -0.66 15.02 -1 14 C-3.32671865 12.98470459 -5.6603447 11.98511802 -8 11 C-10 8 -10 8 -9.8125 4.9375 C-8.32873507 -0.42688092 -4.94037823 -0.40329618 0 0 Z " fill="#0E0E0E" transform="translate(170,304)"/>
<path d="M0 0 C3.68644467 0.89226049 6.88525836 1.06753591 10.69140625 0.9296875 C14.4295366 1.15705142 17.90349602 2.37619761 21.45703125 3.50390625 C23.99613754 4.31192712 23.99613754 4.31192712 26.875 3.0625 C27.535 5.0425 28.195 7.0225 28.875 9.0625 C29.803125 8.815 29.803125 8.815 30.75 8.5625 C32.875 8.0625 32.875 8.0625 34.875 8.0625 C34.5965625 9.67125 34.5965625 9.67125 34.3125 11.3125 C33.81176362 15.33057607 33.81176362 15.33057607 34.875 19.0625 C35.535 19.3925 36.195 19.7225 36.875 20.0625 C36.545 23.0325 36.215 26.0025 35.875 29.0625 C35.545 29.0625 35.215 29.0625 34.875 29.0625 C34.72804688 28.2890625 34.58109375 27.515625 34.4296875 26.71875 C32.75549789 18.94435229 30.7543135 12.28717155 23.84765625 7.72265625 C17.44706563 4.3733714 11.0779908 3.01247273 3.875 4.0625 C-2.32004502 6.39896047 -7.6210643 9.15299663 -12.125 14.0625 C-12.455 13.4025 -12.785 12.7425 -13.125 12.0625 C-12.1875 9.9375 -12.1875 9.9375 -11.125 8.0625 C-10.465 8.0625 -9.805 8.0625 -9.125 8.0625 C-8.795 7.0725 -8.465 6.0825 -8.125 5.0625 C-7.465 5.0625 -6.805 5.0625 -6.125 5.0625 C-6.125 3.4125 -6.125 1.7625 -6.125 0.0625 C-3.56504229 -1.21747886 -2.72293976 -0.72580102 0 0 Z " fill="#2D2B8C" transform="translate(388.125,287.9375)"/>
<path d="M0 0 C2.1875 1.4375 2.1875 1.4375 4 3 C-17.93858601 15.75582281 -59.08646173 10.42453131 -83 6 C-79.7317333 4.01623812 -77.64103206 3.8459617 -73.875 4.3125 C-73.00617188 4.41175781 -72.13734375 4.51101563 -71.2421875 4.61328125 C-69 5 -69 5 -67 6 C-67 5.34 -67 4.68 -67 4 C-64 5 -64 5 -63 6 C-60.00269496 6.11379508 -57.02936442 6.16420013 -54.03125 6.16796875 C-52.66703918 6.17296135 -52.66703918 6.17296135 -51.27526855 6.17805481 C-49.34172065 6.18313167 -47.40816394 6.1854629 -45.47460938 6.18530273 C-42.54021289 6.1874703 -39.60620393 6.20556493 -36.671875 6.22460938 C-34.79166795 6.22754707 -32.91145911 6.22952935 -31.03125 6.23046875 C-30.16213989 6.23765427 -29.29302979 6.24483978 -28.39758301 6.25224304 C-23.35828432 6.23371888 -18.82651956 5.69787284 -13.94567871 4.42329407 C-12 4 -12 4 -8.625 4.0625 C-5.96378156 4.27499027 -5.96378156 4.27499027 -4.3125 2.5625 C-3.879375 2.046875 -3.44625 1.53125 -3 1 C-2.01 0.67 -1.02 0.34 0 0 Z " fill="#3E3C96" transform="translate(293,480)"/>
<path d="M0 0 C1.32 0.33 2.64 0.66 4 1 C4 1.66 4 2.32 4 3 C3.01 3.33 2.02 3.66 1 4 C0.7763932 6.9254644 0.7763932 6.9254644 2 9 C-0.07010268 12.10515402 -0.76311542 12.57196269 -4 14 C-4.7425 14.37125 -5.485 14.7425 -6.25 15.125 C-6.8275 15.41375 -7.405 15.7025 -8 16 C-8 17.32 -8 18.64 -8 20 C-8.61875 20.226875 -9.2375 20.45375 -9.875 20.6875 C-12.67567818 22.41733064 -12.99366703 23.90912017 -14 27 C-15.54448399 31.74377224 -15.54448399 31.74377224 -18 33.125 C-18.66 33.41375 -19.32 33.7025 -20 34 C-22.28312823 36.82376713 -22.28312823 36.82376713 -22 40.0625 C-22 41.031875 -22 42.00125 -22 43 C-22.66 43.66 -23.32 44.32 -24 45 C-25.625 43.3125 -25.625 43.3125 -27 41 C-25.65548043 35.84280707 -22.13157245 31.56135256 -19.125 27.25 C-18.55434814 26.42395264 -17.98369629 25.59790527 -17.39575195 24.74682617 C-11.65603803 16.45665469 -5.84077589 8.21918193 0 0 Z " fill="#2B2980" transform="translate(414,188)"/>
<path d="M0 0 C0.33 1.65 0.66 3.3 1 5 C0.01 5.495 0.01 5.495 -1 6 C-1.33 5.34 -1.66 4.68 -2 4 C-4.19914497 3.40802387 -4.19914497 3.40802387 -7 4 C-9.72436362 6.00597159 -12.14235598 8.16161225 -14 11 C-13.79029547 13.19803902 -13.79029547 13.19803902 -13 15 C-9.62537285 14.45276317 -7.91765 13.9451 -5 12 C-4.01 12.66 -3.02 13.32 -2 14 C-4.52289139 16.89390483 -6.37471839 18.7655194 -10 20.125 C-13 20 -13 20 -15.9375 18 C-18 15 -18 15 -18.3125 11.6875 C-15.13513044 2.76060458 -9.06994429 -1.51165738 0 0 Z " fill="#111111" transform="translate(106,310)"/>
<path d="M0 0 C0.82638376 2.89234315 1 4.88742431 1 8 C0.34 8 -0.32 8 -1 8 C-1 8.66 -1 9.32 -1 10 C-1.66 10 -2.32 10 -3 10 C-3.33 10.99 -3.66 11.98 -4 13 C-3.34 13.556875 -2.68 14.11375 -2 14.6875 C0 17 0 17 0.25 19.75 C0.1675 20.4925 0.085 21.235 0 22 C0.66 22 1.32 22 2 22 C2.33 21.34 2.66 20.68 3 20 C4.5912689 24.873261 5.21192221 28.80790596 5 34 C3 31 3 31 1.9921875 28.9140625 C-0.94672276 22.89237924 -4.03147184 19.95459943 -10 17 C-10.74121094 16.62746094 -11.48242188 16.25492188 -12.24609375 15.87109375 C-13.11427734 15.43990234 -13.11427734 15.43990234 -14 15 C-11.71726127 13.24404713 -9.51881093 11.72933115 -7 10.3125 C-3.21587786 7.39557252 -1.79137075 4.3414397 0 0 Z " fill="#21204F" transform="translate(159,212)"/>
<path d="M0 0 C0.33 0 0.66 0 1 0 C1 15.18 1 30.36 1 46 C0.34 45.67 -0.32 45.34 -1 45 C-1 35.76 -1 26.52 -1 17 C-1.66 17 -2.32 17 -3 17 C-3 18.98 -3 20.96 -3 23 C-5.11689489 19.82465767 -5.22908034 18.84110384 -5.375 15.1875 C-5.64148063 11.67200559 -6.02949357 9.41870397 -8.125 6.5625 C-8.74375 5.716875 -9.3625 4.87125 -10 4 C-9.67 3.01 -9.34 2.02 -9 1 C-8.34 1.33 -7.68 1.66 -7 2 C-6.67 2.99 -6.34 3.98 -6 5 C-3.98491642 5.73323796 -3.98491642 5.73323796 -2 6 C-1.34 4.02 -0.68 2.04 0 0 Z " fill="#272477" transform="translate(327,292)"/>
<path d="M0 0 C1.58221767 0.24006061 3.16410641 0.48241937 4.74462891 0.73339844 C9.3710198 1.2802721 14.03532155 1.14263302 18.6875 1.125 C20.2353418 1.13080078 20.2353418 1.13080078 21.81445312 1.13671875 C22.80767578 1.13542969 23.80089844 1.13414062 24.82421875 1.1328125 C25.72229248 1.13168457 26.62036621 1.13055664 27.5456543 1.12939453 C29.8381816 1.00853116 31.80341616 0.6442289 34 0 C34 0.66 34 1.32 34 2 C34.66 2 35.32 2 36 2 C36.495 3.485 36.495 3.485 37 5 C36.34 5 35.68 5 35 5 C34.34 6.65 33.68 8.3 33 10 C31.68 10 30.36 10 29 10 C29.99 8.35 30.98 6.7 32 5 C17.15 4.505 17.15 4.505 2 4 C1.34 5.65 0.68 7.3 0 9 C-1.3950848 6.70221327 -2.07438619 5.5207033 -1.6875 2.8125 C-1 1 -1 1 0 0 Z " fill="#2D2B76" transform="translate(386,177)"/>
<path d="M0 0 C1.1171875 3.7734375 1.1171875 3.7734375 0.0625 5.8125 C-1.43421465 8.89397134 -1.12978288 11.62564522 -1 15 C-1.99 15 -2.98 15 -4 15 C-6.71215135 16.18166628 -6.71215135 16.18166628 -9 18 C-11.14558827 18.08775605 -13.29404421 18.10695219 -15.44140625 18.09765625 C-16.74658203 18.09443359 -18.05175781 18.09121094 -19.39648438 18.08789062 C-20.7851569 18.07953401 -22.17382877 18.07106905 -23.5625 18.0625 C-24.95507656 18.05748666 -26.34765481 18.05292347 -27.74023438 18.04882812 C-31.1601987 18.03699434 -34.58007844 18.0205088 -38 18 C-38 17.34 -38 16.68 -38 16 C-37.20416504 16.04825928 -36.40833008 16.09651855 -35.58837891 16.14624023 C-21.09779254 17.48330906 -21.09779254 17.48330906 -7.69238281 13.48046875 C-3.98972781 9.55211649 -1.86114894 5.02147653 0 0 Z " fill="#24216B" transform="translate(360,263)"/>
<path d="M0 0 C2.97 0.495 2.97 0.495 6 1 C5.67 2.32 5.34 3.64 5 5 C-3.91 5 -12.82 5 -22 5 C-22 10.94 -22 16.88 -22 23 C-22.33 23 -22.66 23 -23 23 C-23.33559955 20.39610703 -23.66856858 17.7919239 -24 15.1875 C-24.09539062 14.44951172 -24.19078125 13.71152344 -24.2890625 12.95117188 C-24.66984677 9.94569605 -25 7.03285559 -25 4 C-19.25 2 -19.25 2 -17 2 C-15.845 1.979375 -14.69 1.95875 -13.5 1.9375 C-10 2 -10 2 -8 3 C-4.43992779 2.75333604 -4.43992779 2.75333604 -1 2 C-0.67 1.34 -0.34 0.68 0 0 Z " fill="#222246" transform="translate(186,176)"/>
<path d="M0 0 C3.58238859 2.10270635 4.75144507 3.38453066 6.3125 7.25 C6.539375 8.1575 6.76625 9.065 7 10 C6.01 9.67 5.02 9.34 4 9 C4 8.34 4 7.68 4 7 C2.68 7.99 1.36 8.98 0 10 C-0.91058531 6.92677456 -1.08886184 4.19902639 -1 1 C-2.65 0.67 -4.3 0.34 -6 0 C-6 0.66 -6 1.32 -6 2 C-7.28965176 3.37562854 -8.62689293 4.70766393 -10 6 C-10.66 6.66 -11.32 7.32 -12 8 C-12.99 7.34 -13.98 6.68 -15 6 C-15.33 9.96 -15.66 13.92 -16 18 C-18 16 -18 16 -18.375 12.75 C-17.83853672 7.38536722 -15.1431445 3.42259763 -11 0 C-7.14033599 -1.28655467 -3.88247667 -0.97061917 0 0 Z " fill="#34318C" transform="translate(403,302)"/>
<path d="M0 0 C0.66 0.99 1.32 1.98 2 3 C-1.62289175 4.01440969 -5.27881622 4.47772859 -9 5 C-10.66934283 5.31966139 -12.3373217 5.64731066 -14 6 C-14.95455446 9.49441745 -14.95455446 9.49441745 -14.25 12.9375 C-14 15 -14 15 -15.04296875 16.58203125 C-16.31105345 18.09876 -17.65223264 19.55361552 -19 21 C-19.37125 20.360625 -19.7425 19.72125 -20.125 19.0625 C-22.58052793 16.36141928 -24.44578805 16.31592995 -28 16 C-28 15.67 -28 15.34 -28 15 C-24.7 15 -21.4 15 -18 15 C-18 10.71 -18 6.42 -18 2 C-16.95199219 1.93941406 -15.90398437 1.87882812 -14.82421875 1.81640625 C-13.44529952 1.73198262 -12.06639395 1.64733553 -10.6875 1.5625 C-9.99720703 1.52318359 -9.30691406 1.48386719 -8.59570312 1.44335938 C-5.52838465 1.25072585 -2.93031848 0.97677283 0 0 Z " fill="#232075" transform="translate(313,323)"/>
<path d="M0 0 C6.75 -0.125 6.75 -0.125 9 1 C8.835 1.763125 8.67 2.52625 8.5 3.3125 C7.90854604 6.03596236 7.90854604 6.03596236 8 9 C7.38125 9.2475 6.7625 9.495 6.125 9.75 C3.85708859 10.81460222 3.85708859 10.81460222 3.0625 13 C1.60163333 15.74986668 -0.11305462 16.08833304 -3 17 C-3.33 15.68 -3.66 14.36 -4 13 C-2.68 13 -1.36 13 0 13 C0 8.71 0 4.42 0 0 Z " fill="#242385" transform="translate(340,326)"/>
<path d="M0 0 C0.33 0 0.66 0 1 0 C1.92831583 8.89003953 2.18629114 17.73335186 2.18530273 26.66259766 C2.18749017 28.86510545 2.20572869 31.0671113 2.22460938 33.26953125 C2.3114379 55.3771242 2.3114379 55.3771242 -1 62 C-1.66 61.67 -2.32 61.34 -3 61 C-2.855625 60.46375 -2.71125 59.9275 -2.5625 59.375 C-1.31526648 54.1089029 -0.89889225 49.19382859 -0.96875 43.78125 C-1.04062206 34.67905228 -0.7829165 25.5969997 -0.5 16.5 C-0.45160501 14.88672527 -0.40342695 13.27344402 -0.35546875 11.66015625 C-0.23946623 7.77335816 -0.12057621 3.88665878 0 0 Z " fill="#424095" transform="translate(487,222)"/>
<path d="M0 0 C1.65 0 3.3 0 5 0 C5 6.93 5 13.86 5 21 C3.35 21 1.7 21 0 21 C0 14.07 0 7.14 0 0 Z " fill="#111111" transform="translate(152,304)"/>
<path d="M0 0 C3 0.25 3 0.25 5 2.25 C5.30078125 4.125 5.30078125 4.125 5.3125 6.25 C5.32925781 6.95125 5.34601563 7.6525 5.36328125 8.375 C5.18345703 9.303125 5.18345703 9.303125 5 10.25 C2 12.25 2 12.25 -0.5625 12 C-3 11.25 -3 11.25 -5 9.25 C-5.25 5.75 -5.25 5.75 -5 2.25 C-3 0.25 -3 0.25 0 0 Z " fill="#F1F1F1" transform="translate(210,308.75)"/>
<path d="M0 0 C2.33295886 2.85139416 4.1196514 5.25702894 5.6875 8.625 C7.6981251 11.45236026 8.75897782 11.95054407 12.21606445 12.65991211 C16.26364539 12.91580107 20.25962383 12.97160489 24.3125 12.9375 C25.73505868 12.95061636 27.15759219 12.96685994 28.58007812 12.98632812 C32.05382969 13.02707723 35.52602857 13.02505192 39 13 C38.67 13.66 38.34 14.32 38 15 C33.58404696 15.2258868 29.16731435 15.42767834 24.75 15.625 C23.49574219 15.68945312 22.24148438 15.75390625 20.94921875 15.8203125 C19.74394531 15.871875 18.53867187 15.9234375 17.296875 15.9765625 C16.18666992 16.02893066 15.07646484 16.08129883 13.93261719 16.13525391 C11.01111303 16.00051254 9.45313506 15.52929484 7 14 C7 13.01 7 12.02 7 11 C6.360625 10.731875 5.72125 10.46375 5.0625 10.1875 C3 9 3 9 2 6 C0.50014391 4.33289654 0.50014391 4.33289654 -1 3 C-0.67 2.01 -0.34 1.02 0 0 Z " fill="#292579" transform="translate(382,266)"/>
<path d="M0 0 C1.11393093 3.34179279 0.75376997 4.64991123 0 8 C0 8.99 0 9.98 0 11 C-1.65 11.33 -3.3 11.66 -5 12 C-5.33 12.99 -5.66 13.98 -6 15 C-8.5625 16.1875 -8.5625 16.1875 -11 17 C-11 17.66 -11 18.32 -11 19 C-11.66 19.639375 -12.32 20.27875 -13 20.9375 C-15.34807292 22.88012332 -15.34807292 22.88012332 -15 26 C-16.65 26.66 -18.3 27.32 -20 28 C-18.53835708 23.65522626 -16.19778645 20.35982641 -13.375 16.8125 C-12.93494629 16.25022705 -12.49489258 15.6879541 -12.04150391 15.10864258 C-10.70116632 13.40023176 -9.35211884 11.6990964 -8 10 C-7.195625 8.98679687 -6.39125 7.97359375 -5.5625 6.9296875 C-3.71528324 4.61406935 -1.86182492 2.30387833 0 0 Z " fill="#141326" transform="translate(70,92)"/>
<path d="M0 0 C0.33 0.66 0.66 1.32 1 2 C5.08718695 2.24042276 8.17679443 1.42258812 12 0 C12 0.99 12 1.98 12 3 C18.45968707 6.60251779 24.79226072 8.41429736 32 10 C32.33 9.34 32.66 8.68 33 8 C33.66 8 34.32 8 35 8 C35.495 9.485 35.495 9.485 36 11 C32.80361701 12.03031427 30.71935341 11.93623598 27.47265625 11.14453125 C26.60342529 10.93594482 25.73419434 10.7273584 24.83862305 10.51245117 C23.92250244 10.28146729 23.00638184 10.0504834 22.0625 9.8125 C21.12768799 9.58344971 20.19287598 9.35439941 19.22973633 9.1184082 C12.06692105 7.33650581 5.00656567 5.32685576 -2 3 C-1.34 2.67 -0.68 2.34 0 2 C0 1.34 0 0.68 0 0 Z " fill="#363391" transform="translate(172,473)"/>
<path d="M0 0 C0.66 0.33 1.32 0.66 2 1 C2.33 1.99 2.66 2.98 3 4 C3.66 4.33 4.32 4.66 5 5 C-2.0407781 10.85693046 -9.31136934 16.0327747 -17 21 C-17.99 19.68 -18.98 18.36 -20 17 C-17.01758453 16.22678118 -14.02419525 15.58803797 -11 15 C-10.67 12.69 -10.34 10.38 -10 8 C-9.01 8 -8.02 8 -7 8 C-7 8.66 -7 9.32 -7 10 C-5.35 9.34 -3.7 8.68 -2 8 C-1.855625 6.865625 -1.71125 5.73125 -1.5625 4.5625 C-1 1 -1 1 0 0 Z " fill="#3531A5" transform="translate(394,432)"/>
<path d="M0 0 C0.66 0.33 1.32 0.66 2 1 C-1.9714589 8.5563156 -1.9714589 8.5563156 -6.1875 10.375 C-7.115625 10.58125 -8.04375 10.7875 -9 11 C-9.66 11.66 -10.32 12.32 -11 13 C-11.33 13 -11.66 13 -12 13 C-12.33 13.66 -12.66 14.32 -13 15 C-15.69735171 18.15975486 -17.22555325 19.81004136 -21.3125 20.8125 C-22.199375 20.874375 -23.08625 20.93625 -24 21 C-17.50854053 12.40836246 -8.55978218 6.38789715 0 0 Z " fill="#0E0F22" transform="translate(111,55)"/>
<path d="M0 0 C0.66 0 1.32 0 2 0 C2 0.66 2 1.32 2 2 C2.69867188 2.12117187 3.39734375 2.24234375 4.1171875 2.3671875 C5.02726563 2.53476563 5.93734375 2.70234375 6.875 2.875 C7.77992188 3.03742188 8.68484375 3.19984375 9.6171875 3.3671875 C12 4 12 4 14 6 C16.08671581 6.96986764 16.08671581 6.96986764 18.4375 7.75 C19.21996094 8.03359375 20.00242188 8.3171875 20.80859375 8.609375 C23.28291631 9.31124359 23.28291631 9.31124359 26 7 C26.84454356 10.37817425 27.10844919 12.67465243 26 16 C23.60788101 14.93683601 21.88805433 13.89823121 19.9375 12.125 C13.87142225 7.73677354 6.17818553 5.91418281 -1 4 C-0.67 2.68 -0.34 1.36 0 0 Z " fill="#181641" transform="translate(132,177)"/>
<path d="M0 0 C0.61875 0.66 1.2375 1.32 1.875 2 C6.86652932 6.99152932 12.52644343 12.08465697 19 15 C19 15.66 19 16.32 19 17 C16.625 17.625 16.625 17.625 14 18 C12 16 12 16 11 13 C10.071875 13.20625 9.14375 13.4125 8.1875 13.625 C5 14 5 14 2 12 C2 10 2 10 3.5 8.375 C3.995 7.92125 4.49 7.4675 5 7 C3.35 7.33 1.7 7.66 0 8 C0 5.36 0 2.72 0 0 Z " fill="#232164" transform="translate(233,260)"/>
<path d="M0 0 C0.33 0 0.66 0 1 0 C1 6.93 1 13.86 1 21 C0.01 20.67 -0.98 20.34 -2 20 C-1.67 17.69 -1.34 15.38 -1 13 C-1.99 13.66 -2.98 14.32 -4 15 C-4.66 15 -5.32 15 -6 15 C-6.33 15.99 -6.66 16.98 -7 18 C-8.32 17.67 -9.64 17.34 -11 17 C-10.45730469 16.35933594 -9.91460937 15.71867187 -9.35546875 15.05859375 C-5.34742815 10.21283656 -2.07192078 5.95677223 0 0 Z " fill="#1A1954" transform="translate(163,257)"/>
<path d="M0 0 C5 0 5 0 6.875 1.0625 C8.66310335 4.14201133 7.74592606 6.64333273 7 10 C6 11 6 11 2.9375 11.0625 C1.968125 11.041875 0.99875 11.02125 0 11 C0 7.37 0 3.74 0 0 Z " fill="#F6F6F6" transform="translate(248,309)"/>
<path d="M0 0 C5 0 5 0 6.875 1.0625 C8.66310335 4.14201133 7.74592606 6.64333273 7 10 C6 11 6 11 2.9375 11.0625 C1.968125 11.041875 0.99875 11.02125 0 11 C0 7.37 0 3.74 0 0 Z " fill="#F6F6F6" transform="translate(136,309)"/>
<path d="M0 0 C8.96624473 -0.35864979 8.96624473 -0.35864979 13.0625 1.0625 C15 3 15 3 16.125 6.375 C16 10 16 10 14.25 12.9375 C9.40587824 16.0116542 5.67412404 15.3418147 0 15 C0 10.05 0 5.1 0 0 Z M1 1 C1 5.29 1 9.58 1 14 C2.588125 14.061875 4.17625 14.12375 5.8125 14.1875 C6.70582031 14.22230469 7.59914063 14.25710938 8.51953125 14.29296875 C11.0332277 14.20040787 11.0332277 14.20040787 12.8125 12.6875 C14.58043356 10.17517337 14.19885058 7.9827587 14 5 C12.68 4.67 11.36 4.34 10 4 C10 3.34 10 2.68 10 2 C7.03 1.67 4.06 1.34 1 1 Z " fill="#5C5B93" transform="translate(295,301)"/>
<path d="M0 0 C0.66 0.33 1.32 0.66 2 1 C0.33333333 2.66666667 -1.33333333 4.33333333 -3 6 C-3.680625 6.86625 -3.680625 6.86625 -4.375 7.75 C-6.9435703 9.72582331 -9.84244294 9.60530537 -13 10 C-16.0109362 12.0072908 -16.63016497 12.83884224 -18 16 C-19.65 16 -21.3 16 -23 16 C-21.78060957 12.3418287 -20.84806711 12.02265583 -17.59765625 10.1171875 C-16.70755859 9.58996094 -15.81746094 9.06273437 -14.90039062 8.51953125 C-13.96388672 7.97683594 -13.02738281 7.43414062 -12.0625 6.875 C-11.12986328 6.32457031 -10.19722656 5.77414063 -9.23632812 5.20703125 C-2.58813776 1.29406888 -2.58813776 1.29406888 0 0 Z " fill="#14142A" transform="translate(137,39)"/>
<path d="M0 0 C6.15234375 0.5859375 6.15234375 0.5859375 8 1 C8.495 1.99 8.495 1.99 9 3 C-8.16 3 -25.32 3 -43 3 C-43 5.31 -43 7.62 -43 10 C-43.33 10 -43.66 10 -44 10 C-44 7.36 -44 4.72 -44 2 C-41.22063662 1.07354554 -39.74256078 0.89943678 -36.89575195 0.97827148 C-36.07512772 0.99836777 -35.25450348 1.01846405 -34.40901184 1.03916931 C-33.0870002 1.07972191 -33.0870002 1.07972191 -31.73828125 1.12109375 C-30.83248825 1.14470474 -29.92669525 1.16831573 -28.99345398 1.19264221 C-26.09964135 1.26923144 -23.20609952 1.35327631 -20.3125 1.4375 C-18.35092472 1.49072542 -16.38933622 1.54346579 -14.42773438 1.59570312 C-9.61831801 1.72484022 -4.80913127 1.86066442 0 2 C0 1.34 0 0.68 0 0 Z " fill="#22223F" transform="translate(120,178)"/>
<path d="M0 0 C2.34211663 2.89399469 3.86862171 5.67155428 5.25 9.125 C5.60578125 9.99382812 5.9615625 10.86265625 6.328125 11.7578125 C7 14 7 14 6 16 C4.02 15.34 2.04 14.68 0 14 C-1.13016601 8.97703996 -0.77916092 5.02125926 0 0 Z " fill="#28278D" transform="translate(466,149)"/>
<path d="M0 0 C0.8353125 0.928125 0.8353125 0.928125 1.6875 1.875 C4.06645178 4.06106379 5.96357096 4.98785699 9 6 C8.4225 6.103125 7.845 6.20625 7.25 6.3125 C4.89737445 6.87117946 4.89737445 6.87117946 3.0625 8.625 C1 10 1 10 -1.75 9.6875 C-2.4925 9.460625 -3.235 9.23375 -4 9 C-4.8125 7.3125 -4.8125 7.3125 -5 5 C-2.5625 2.25 -2.5625 2.25 0 0 Z " fill="#E1E1E1" transform="translate(96,316)"/>
<path d="M0 0 C2.625 0.375 2.625 0.375 5 1 C5.39169887 3.66355234 5.40564529 5.39224373 3.88671875 7.66796875 C2.63610683 9.1510888 1.32135486 10.57954352 0 12 C-0.66 11.67 -1.32 11.34 -2 11 C-2 9.68 -2 8.36 -2 7 C-3.98 6.34 -5.96 5.68 -8 5 C-8 4.67 -8 4.34 -8 4 C-6.576875 3.566875 -6.576875 3.566875 -5.125 3.125 C-1.94788422 2.23174891 -1.94788422 2.23174891 0 0 Z " fill="#E0E0E0" transform="translate(108,304)"/>
<path d="M0 0 C2.3736022 4.39051044 3.2019828 8.83107049 4.1875 13.6875 C4.47270508 14.97817383 4.47270508 14.97817383 4.76367188 16.29492188 C5.97036312 22.20370149 5.94784745 27.0412393 5 33 C4.67 33 4.34 33 4 33 C3.67 28.38 3.34 23.76 3 19 C2.34 19 1.68 19 1 19 C0.04123656 15.27147551 0.17058154 12.73238306 1 9 C0.67 8.67 0.34 8.34 0 8 C-0.14115161 5.32941149 -0.04247107 2.67567762 0 0 Z " fill="#3E3B96" transform="translate(481,190)"/>
<path d="M0 0 C0.66 1.32 1.32 2.64 2 4 C-0.64 7.63 -3.28 11.26 -6 15 C-8.96404505 12.19195732 -11.44499019 9.81684226 -13 6 C-12.071875 6.33 -11.14375 6.66 -10.1875 7 C-7.07970709 8.14967004 -7.07970709 8.14967004 -4 8 C-4 6.68 -4 5.36 -4 4 C-2 1.75 -2 1.75 0 0 Z " fill="#2E2C77" transform="translate(377,193)"/>
<path d="M0 0 C6.93 0 13.86 0 21 0 C17.32337688 2.45108208 14.60867701 2.19380765 10.375 2.0625 C7.91177426 2.00069043 5.46508783 1.97940857 3 2 C1.69400709 3.07276594 1.69400709 3.07276594 1.97265625 5.6171875 C2.03241058 7.78393163 2.09489766 9.95060217 2.16015625 12.1171875 C2 15 2 15 0 18 C0 12.06 0 6.12 0 0 Z " fill="#131136" transform="translate(104,201)"/>
<path d="M0 0 C0.99 0.33 1.98 0.66 3 1 C3 3 3 3 1 5.125 C0.34 5.74375 -0.32 6.3625 -1 7 C0.32 7.33 1.64 7.66 3 8 C3 10.64 3 13.28 3 16 C-0.71080883 11.57557408 -3.84577733 6.82596069 -7 2 C-4.3333581 0.66667905 -2.83319697 1.32897967 0 2 C0 1.34 0 0.68 0 0 Z " fill="#312E8B" transform="translate(420,264)"/>
<path d="M0 0 C1.3303125 0.5259375 1.3303125 0.5259375 2.6875 1.0625 C6.06203126 2.01755602 7.69686152 1.97151132 11 1 C12.625 2.6875 12.625 2.6875 14 5 C13.1875 7.75 13.1875 7.75 12 10 C3.55353075 3.84965831 3.55353075 3.84965831 0 0 Z " fill="#292780" transform="translate(97,433)"/>
<path d="M0 0 C0.625 1.75 0.625 1.75 1 4 C0.690625 4.598125 0.38125 5.19625 0.0625 5.8125 C-1.43421465 8.89397134 -1.12978288 11.62564522 -1 15 C-1.99 15 -2.98 15 -4 15 C-6.00309329 15.31421071 -8.00371336 15.6451046 -10 16 C-9.52949219 15.26394531 -9.05898438 14.52789062 -8.57421875 13.76953125 C-7.95160156 12.79371094 -7.32898438 11.81789063 -6.6875 10.8125 C-6.07261719 9.84957031 -5.45773437 8.88664062 -4.82421875 7.89453125 C-3.17876897 5.28365697 -1.57630335 2.6530398 0 0 Z " fill="#2F2C80" transform="translate(360,263)"/>
<path d="M0 0 C0.66 0.33 1.32 0.66 2 1 C1.67 2.65 1.34 4.3 1 6 C0.34 6 -0.32 6 -1 6 C-1 6.66 -1 7.32 -1 8 C-0.34 8.66 0.32 9.32 1 10 C0.38125 10.70125 -0.2375 11.4025 -0.875 12.125 C-3.05221245 15.07064037 -3.92203633 17.53511677 -5 21 C-5.66 21.66 -6.32 22.32 -7 23 C-7.38710397 17.69585203 -6.10867972 14.01661545 -4.0625 9.25 C-3.78470703 8.57839844 -3.50691406 7.90679687 -3.22070312 7.21484375 C-2.2071747 4.77749106 -1.18080342 2.36160684 0 0 Z " fill="#171634" transform="translate(30,156)"/>
<path d="M0 0 C0.66 0.99 1.32 1.98 2 3 C-4.99553586 4.95875004 -10.09695063 5.0588042 -17 3 C-17 6.96 -17 10.92 -17 15 C-17.33 15 -17.66 15 -18 15 C-18 10.71 -18 6.42 -18 2 C-16.95199219 1.93941406 -15.90398437 1.87882812 -14.82421875 1.81640625 C-13.44529952 1.73198262 -12.06639395 1.64733553 -10.6875 1.5625 C-9.99720703 1.52318359 -9.30691406 1.48386719 -8.59570312 1.44335938 C-5.52838465 1.25072585 -2.93031848 0.97677283 0 0 Z " fill="#4D4B8C" transform="translate(313,323)"/>
<path d="M0 0 C1.32 1.32 2.64 2.64 4 4 C1.64046906 6.35953094 0.22104383 6.49141413 -3 7 C-2.67 7.99 -2.34 8.98 -2 10 C-3.65 11.65 -5.3 13.3 -7 15 C-7.66 14.34 -8.32 13.68 -9 13 C-7.68889201 11.01989841 -6.37618664 9.04088963 -5.0625 7.0625 C-4.50272461 6.21655273 -4.50272461 6.21655273 -3.93164062 5.35351562 C-1.11328125 1.11328125 -1.11328125 1.11328125 0 0 Z " fill="#2F2C7C" transform="translate(370,249)"/>
<path d="M0 0 C3.28788824 3.11016455 5.83735988 6.01618925 8 10 C7.2575 9.835 6.515 9.67 5.75 9.5 C2.80993422 8.88074304 2.80993422 8.88074304 -1 9 C-1.33 9.66 -1.66 10.32 -2 11 C-2.33 8.03 -2.66 5.06 -3 2 C-2.01 1.34 -1.02 0.68 0 0 Z " fill="#2F2C81" transform="translate(435,99)"/>
<path d="M0 0 C5.57834863 0.37819313 9.04447516 0.69545826 13 5 C14.3125 8.25 14.3125 8.25 15 11 C14.01 10.67 13.02 10.34 12 10 C12 9.34 12 8.68 12 8 C10.68 8.99 9.36 9.98 8 11 C7.08941469 7.92677456 6.91113816 5.19902639 7 2 C4.69 1.67 2.38 1.34 0 1 C0 0.67 0 0.34 0 0 Z " fill="#3B3991" transform="translate(395,301)"/>
<path d="M0 0 C2.64 0 5.28 0 8 0 C8.2784375 1.1446875 8.2784375 1.1446875 8.5625 2.3125 C10.63445622 6.18615728 12.92286538 6.56545263 17 8 C17 8.66 17 9.32 17 10 C12.64029169 8.65150163 8.68658562 6.95092154 4.625 4.875 C3.56539062 4.33617187 2.50578125 3.79734375 1.4140625 3.2421875 C0.61742187 2.83226562 -0.17921875 2.42234375 -1 2 C-0.67 1.34 -0.34 0.68 0 0 Z " fill="#2B2983" transform="translate(134,457)"/>
<path d="M0 0 C0.99 0 1.98 0 3 0 C3.66 0.99 4.32 1.98 5 3 C7.58380177 3.25030977 7.58380177 3.25030977 10 3 C10.33 4.98 10.66 6.96 11 9 C9.02 9.99 9.02 9.99 7 11 C5.83051998 9.35616456 4.6644855 7.70987731 3.5 6.0625 C2.8503125 5.14597656 2.200625 4.22945313 1.53125 3.28515625 C0 1 0 1 0 0 Z " fill="#27278C" transform="translate(405,254)"/>
<path d="M0 0 C1.98 0.66 3.96 1.32 6 2 C6 2.66 6 3.32 6 4 C6.99 4 7.98 4 9 4 C10.6875 6.5 10.6875 6.5 12 9 C8.32965255 9 6.9000569 7.9247108 3.8125 6 C2.91144531 5.443125 2.01039062 4.88625 1.08203125 4.3125 C0.39496094 3.879375 -0.29210937 3.44625 -1 3 C-0.67 2.01 -0.34 1.02 0 0 Z " fill="#2C2C86" transform="translate(121,448)"/>
<path d="M0 0 C0.99 0 1.98 0 3 0 C1.63491499 3.11728368 0.13080302 5.08663738 -2.4375 7.3125 C-3.03433594 7.84488281 -3.63117188 8.37726563 -4.24609375 8.92578125 C-4.82488281 9.28027344 -5.40367187 9.63476562 -6 10 C-6.99 9.67 -7.98 9.34 -9 9 C-7.87410807 5.6223242 -6.68056948 4.28636808 -4 2 C-3.01 2 -2.02 2 -1 2 C-0.67 1.34 -0.34 0.68 0 0 Z " fill="#3734A5" transform="translate(407,426)"/>
<path d="M0 0 C2.31 0.33 4.62 0.66 7 1 C7.66 3.31 8.32 5.62 9 8 C7.53932801 7.54917531 6.08151968 7.08906463 4.625 6.625 C3.81289062 6.36976563 3.00078125 6.11453125 2.1640625 5.8515625 C0 5 0 5 -2 3 C-1.34 2.34 -0.68 1.68 0 1 C0 0.67 0 0.34 0 0 Z " fill="#2E2C90" transform="translate(153,464)"/>
<path d="M0 0 C0.8968714 2.6906142 1.27859126 4.88897096 1.5625 7.6875 C1.64628906 8.49574219 1.73007812 9.30398438 1.81640625 10.13671875 C1.87699219 10.75160156 1.93757813 11.36648438 2 12 C1.01 12.495 1.01 12.495 0 13 C-0.67408308 11.73308493 -1.33900497 10.46129251 -2 9.1875 C-2.37125 8.47980469 -2.7425 7.77210938 -3.125 7.04296875 C-4 5 -4 5 -4 2 C-2.68 1.34 -1.36 0.68 0 0 Z " fill="#1E1E5F" transform="translate(36,344)"/>
<path d="M0 0 C3.67758005 3.28355362 5.81389118 6.62778237 8 11 C7.67 11.66 7.34 12.32 7 13 C6.67 12.67 6.34 12.34 6 12 C5.34 12.66 4.68 13.32 4 14 C-0.59225513 4.58997722 -0.59225513 4.58997722 0 0 Z " fill="#2E2C85" transform="translate(448,117)"/>
<path d="M0 0 C0.33 0 0.66 0 1 0 C1.13277344 0.75925781 1.26554687 1.51851563 1.40234375 2.30078125 C1.57894531 3.29464844 1.75554687 4.28851563 1.9375 5.3125 C2.19853516 6.79169922 2.19853516 6.79169922 2.46484375 8.30078125 C2.95746847 11.08189213 2.95746847 11.08189213 4 14 C0.25 15.125 0.25 15.125 -2 14 C-2.75 10.5625 -2.75 10.5625 -3 7 C-2.34 6.34 -1.68 5.68 -1 5 C-0.35232207 2.42938689 -0.35232207 2.42938689 0 0 Z " fill="#35318F" transform="translate(372,313)"/>
<path d="M0 0 C0.33 0.99 0.66 1.98 1 3 C-5.24309927 5.77471079 -10.19796625 6.37634203 -17 6 C-17 5.34 -17 4.68 -17 4 C-16.02417969 3.79503906 -15.04835937 3.59007812 -14.04296875 3.37890625 C-12.77066406 3.10949219 -11.49835938 2.84007812 -10.1875 2.5625 C-8.92292969 2.29566406 -7.65835938 2.02882813 -6.35546875 1.75390625 C-3.02954587 1.06572114 -3.02954587 1.06572114 0 0 Z " fill="#343261" transform="translate(149,274)"/>
<path d="M0 0 C2.35716404 2.15454249 3.78966144 4.19719874 5.1875 7.0625 C5.53167969 7.75472656 5.87585938 8.44695312 6.23046875 9.16015625 C7 11 7 11 7 13 C4 14 4 14 1.8125 13.0625 C1.214375 12.711875 0.61625 12.36125 0 12 C0.185625 10.948125 0.37125 9.89625 0.5625 8.8125 C0.95079331 5.42880118 0.88247485 3.23574112 0 0 Z " fill="#282587" transform="translate(456,130)"/>
<path d="M0 0 C3 2 3 2 5 5 C5.66 4.67 6.32 4.34 7 4 C7 5.65 7 7.3 7 9 C3.00095031 9 1.19799578 7.27413033 -2 5 C-1.125 1.125 -1.125 1.125 0 0 Z " fill="#26247E" transform="translate(113,440)"/>
<path d="M0 0 C0.33 0.99 0.66 1.98 1 3 C-0.41346562 4.44064765 -1.83091211 5.87739015 -3.25 7.3125 C-4.03890625 8.11300781 -4.8278125 8.91351563 -5.640625 9.73828125 C-7.67394067 11.68743651 -9.70601078 13.37421406 -12 15 C-12.66 14.67 -13.32 14.34 -14 14 C-9.38 9.38 -4.76 4.76 0 0 Z " fill="#FEF2ED" transform="translate(83,63)"/>
<path d="M0 0 C0.66 0.33 1.32 0.66 2 1 C2 1.66 2 2.32 2 3 C-0.08203125 4.40234375 -0.08203125 4.40234375 -2.8125 5.9375 C-5.95238417 7.70906524 -8.58153646 9.30835453 -11 12 C-11.33 11.34 -11.66 10.68 -12 10 C-11.0625 7.875 -11.0625 7.875 -10 6 C-9.34 6 -8.68 6 -8 6 C-7.67 5.01 -7.34 4.02 -7 3 C-5.02 3 -3.04 3 -1 3 C-0.67 2.01 -0.34 1.02 0 0 Z " fill="#353286" transform="translate(387,290)"/>
<path d="M0 0 C0 3.54069923 -0.49579807 5.78647769 -2 9 C-4.79479792 10.28094905 -6.92508839 11 -10 11 C-8.85455923 7.56367769 -7.7288492 6.66528415 -5 4.375 C-4.278125 3.76398438 -3.55625 3.15296875 -2.8125 2.5234375 C-2.214375 2.02070313 -1.61625 1.51796875 -1 1 C-0.67 0.67 -0.34 0.34 0 0 Z " fill="#2B2976" transform="translate(318,262)"/>
<path d="M0 0 C1.65 0 3.3 0 5 0 C4.67 6.27 4.34 12.54 4 19 C3.67 19 3.34 19 3 19 C2.80083984 17.31970703 2.80083984 17.31970703 2.59765625 15.60546875 C2.41943431 14.13279271 2.24103989 12.66013753 2.0625 11.1875 C1.97548828 10.44951172 1.88847656 9.71152344 1.79882812 8.95117188 C1.41783454 5.83266879 0.99630626 2.98891878 0 0 Z " fill="#13123E" transform="translate(160,180)"/>
<path d="M0 0 C0.66 0 1.32 0 2 0 C0.125 5.75 0.125 5.75 -1 8 C-0.67 8.99 -0.34 9.98 0 11 C-0.86625 11.12375 -0.86625 11.12375 -1.75 11.25 C-4.6159304 12.20531013 -5.9990764 13.78469173 -8 16 C-6.46197215 10.15549417 -3.5439162 4.87288478 0 0 Z " fill="#17172C" transform="translate(48,121)"/>
<path d="M0 0 C0.66 0.33 1.32 0.66 2 1 C-0.68841859 3.25245881 -2.64641875 4.88213958 -6 6 C-6.7115625 6.804375 -6.7115625 6.804375 -7.4375 7.625 C-7.953125 8.07875 -8.46875 8.5325 -9 9 C-11.1875 8.6875 -11.1875 8.6875 -13 8 C-13 7.34 -13 6.68 -13 6 C-10.87959258 4.96966118 -8.75352092 3.95097146 -6.625 2.9375 C-5.44164062 2.36902344 -4.25828125 1.80054688 -3.0390625 1.21484375 C-2.03617188 0.81394531 -1.03328125 0.41304687 0 0 Z " fill="#16182F" transform="translate(153,31)"/>
<path d="M0 0 C1.74965358 -0.05429959 3.49979787 -0.09292823 5.25 -0.125 C6.22453125 -0.14820313 7.1990625 -0.17140625 8.203125 -0.1953125 C11.0196498 0.00137219 12.60949036 0.55431084 15 2 C15 2.66 15 3.32 15 4 C10.38 3.34 5.76 2.68 1 2 C0.67 2.66 0.34 3.32 0 4 C0 2.68 0 1.36 0 0 Z " fill="#302E65" transform="translate(271,201)"/>
<path d="M0 0 C3.465 1.98 3.465 1.98 7 4 C5.9375 5.5625 5.9375 5.5625 4 7 C0.3125 6.6875 0.3125 6.6875 -3 6 C-3 4.35 -3 2.7 -3 1 C-2.67 1.66 -2.34 2.32 -2 3 C-1.34 3 -0.68 3 0 3 C0 2.01 0 1.02 0 0 Z " fill="#28266F" transform="translate(381,50)"/>
<path d="M0 0 C3.96 1.98 7.92 3.96 12 6 C11.01 6.33 10.02 6.66 9 7 C6.3125 5.5625 6.3125 5.5625 4 4 C3.67 4.66 3.34 5.32 3 6 C0.9375 6.625 0.9375 6.625 -1 7 C-1 4 -1 4 0 0 Z " fill="#262465" transform="translate(362,39)"/>
<path d="M0 0 C0.33 0 0.66 0 1 0 C2.13222849 5.13857546 2.13222849 5.13857546 2 8 C-0.25 11 -0.25 11 -3 13 C-3.99 13 -4.98 13 -6 13 C-5.071875 11.7315625 -5.071875 11.7315625 -4.125 10.4375 C-1.86952264 7.08627655 -0.93874355 3.91143146 0 0 Z " fill="#373491" transform="translate(422,318)"/>
<path d="M0 0 C1.58167969 0.14695312 1.58167969 0.14695312 3.1953125 0.296875 C4.76925781 0.42835938 4.76925781 0.42835938 6.375 0.5625 C9.11212396 1.0126371 10.95083579 1.65037182 13.3203125 3.046875 C13.3203125 3.376875 13.3203125 3.706875 13.3203125 4.046875 C7.30704499 3.46772833 1.31138528 2.82349555 -4.6796875 2.046875 C-2.6796875 0.046875 -2.6796875 0.046875 0 0 Z " fill="#3D3C95" transform="translate(214.6796875,483.953125)"/>
<path d="M0 0 C1.32 0.33 2.64 0.66 4 1 C4 1.66 4 2.32 4 3 C3.01 3.33 2.02 3.66 1 4 C-0.67067133 5.99665598 -2.33752986 7.99651034 -4 10 C-4.66 10 -5.32 10 -6 10 C-4.6302836 6.00499382 -2.74277578 3.19990508 0 0 Z " fill="#2E2C7D" transform="translate(414,188)"/>
<path d="M0 0 C0.66 0.33 1.32 0.66 2 1 C1.67 1.763125 1.34 2.52625 1 3.3125 C-0.17436686 5.99069135 -0.17436686 5.99069135 0 9 C-0.66 9 -1.32 9 -2 9 C-2 9.66 -2 10.32 -2 11 C-2.99 11.33 -3.98 11.66 -5 12 C-4.52389341 7.00088076 -2.96837781 4.02167317 0 0 Z " fill="#1A1A32" transform="translate(38,140)"/>
<path d="M0 0 C3.33557632 2.9905167 5.15083921 5.93184627 7 10 C6.01 10.495 6.01 10.495 5 11 C5 10.34 5 9.68 5 9 C4.01 9 3.02 9 2 9 C1.67 7.68 1.34 6.36 1 5 C0.34 5 -0.32 5 -1 5 C-0.67 3.35 -0.34 1.7 0 0 Z " fill="#322E84" transform="translate(375,256)"/>
<path d="M0 0 C2.97 0.495 2.97 0.495 6 1 C5.34 2.32 4.68 3.64 4 5 C0.04 4.67 -3.92 4.34 -8 4 C-8 3.67 -8 3.34 -8 3 C-6.865625 2.87625 -5.73125 2.7525 -4.5625 2.625 C-3.386875 2.41875 -2.21125 2.2125 -1 2 C-0.67 1.34 -0.34 0.68 0 0 Z " fill="#121246" transform="translate(186,176)"/>
<path d="M0 0 C0.66 0 1.32 0 2 0 C1.49202991 4.3177458 0.80317221 8.03302114 -1 12 C-1.33 12 -1.66 12 -2 12 C-2.05422947 10.5629191 -2.09289723 9.12524538 -2.125 7.6875 C-2.14820313 6.88699219 -2.17140625 6.08648437 -2.1953125 5.26171875 C-2 3 -2 3 0 0 Z " fill="#24218F" transform="translate(371,302)"/>
<path d="M0 0 C0.12375 0.639375 0.2475 1.27875 0.375 1.9375 C0.58125 2.618125 0.7875 3.29875 1 4 C1.66 4.33 2.32 4.66 3 5 C2.67 6.98 2.34 8.96 2 11 C1.67 11 1.34 11 1 11 C0.67 12.65 0.34 14.3 0 16 C-0.33 16 -0.66 16 -1 16 C-1.02701408 13.89590361 -1.04640223 11.79170822 -1.0625 9.6875 C-1.07410156 8.51574219 -1.08570313 7.34398437 -1.09765625 6.13671875 C-1 3 -1 3 0 0 Z " fill="#3D3B71" transform="translate(251,220)"/>
<path d="M0 0 C0.66 0 1.32 0 2 0 C2.33 0.99 2.66 1.98 3 3 C2.34 3 1.68 3 1 3 C0.34 4.65 -0.32 6.3 -1 8 C-2.32 8 -3.64 8 -5 8 C-4.21718695 6.66144944 -3.42348123 5.32926356 -2.625 4 C-2.18414062 3.2575 -1.74328125 2.515 -1.2890625 1.75 C-0.86367188 1.1725 -0.43828125 0.595 0 0 Z " fill="#2A2A7F" transform="translate(420,179)"/>
<path d="M0 0 C-0.60328125 0.18175781 -1.2065625 0.36351563 -1.828125 0.55078125 C-7.85585198 2.41987906 -7.85585198 2.41987906 -13 6 C-12.67 4.35 -12.34 2.7 -12 1 C-3.96428571 -1.27678571 -3.96428571 -1.27678571 0 0 Z " fill="#1A1937" transform="translate(188,21)"/>
<path d="M0 0 C0.66 0.33 1.32 0.66 2 1 C1.43628586 4.26954202 0.50037734 5.82575883 -2 8 C-2.66 7.34 -3.32 6.68 -4 6 C-3.8125 4 -3.8125 4 -3 2 C-2.01 1.34 -1.02 0.68 0 0 Z " fill="#23248B" transform="translate(368,320)"/>
<path d="M0 0 C4 5 4 5 8 10 C7.67 10.66 7.34 11.32 7 12 C3.125 9.375 3.125 9.375 2 6 C0.50014391 4.33289654 0.50014391 4.33289654 -1 3 C-0.67 2.01 -0.34 1.02 0 0 Z " fill="#363481" transform="translate(382,266)"/>
<path d="M0 0 C0.33 0 0.66 0 1 0 C1 2.97 1 5.94 1 9 C-0.98 9.66 -2.96 10.32 -5 11 C-3.35 7.37 -1.7 3.74 0 0 Z " fill="#262552" transform="translate(163,257)"/>
<path d="M0 0 C0.66 0.99 1.32 1.98 2 3 C1.030625 3.4125 0.06125 3.825 -0.9375 4.25 C-4.14223648 5.62535475 -4.14223648 5.62535475 -4.6875 8.125 C-4.790625 8.74375 -4.89375 9.3625 -5 10 C-5.99 10.33 -6.98 10.66 -8 11 C-8.33 10.01 -8.66 9.02 -9 8 C-6.03 5.36 -3.06 2.72 0 0 Z " fill="#27255C" transform="translate(264,204)"/>
<path d="M0 0 C-2.64 2.64 -5.28 5.28 -8 8 C-9 5 -9 5 -8.3125 2.9375 C-5.92641424 -0.58481708 -4.02033589 -1.34011196 0 0 Z " fill="#1A194F" transform="translate(242,191)"/>
<path d="M0 0 C0.78375 0.04125 1.5675 0.0825 2.375 0.125 C3.035 1.445 3.695 2.765 4.375 4.125 C2.5625 4.75 2.5625 4.75 0.375 5.125 C-0.615 4.465 -1.605 3.805 -2.625 3.125 C-3.285 2.795 -3.945 2.465 -4.625 2.125 C-2.625 0.125 -2.625 0.125 0 0 Z " fill="#E2E2E2" transform="translate(101.625,312.875)"/>
<path d="M0 0 C0.33 0.66 0.66 1.32 1 2 C0.34 2 -0.32 2 -1 2 C-1 2.66 -1 3.32 -1 4 C-4.49655387 6.6020866 -7.89160936 8.54997977 -12 10 C-8.29909479 6.0747975 -4.45040344 3.05419844 0 0 Z " fill="#FEF1ED" transform="translate(109,43)"/>
<path d="M0 0 C-1.65 1.65 -3.3 3.3 -5 5 C-5.99 4.67 -6.98 4.34 -8 4 C-7.625 2.0625 -7.625 2.0625 -7 0 C-4.3333581 -1.33332095 -2.83319697 -0.67102033 0 0 Z " fill="#2A2671" transform="translate(297,249)"/>
<path d="M0 0 C2.31 0.66 4.62 1.32 7 2 C7.33 3.32 7.66 4.64 8 6 C6.68 6.33 5.36 6.66 4 7 C2.02 3.535 2.02 3.535 0 0 Z " fill="#2A2880" transform="translate(395,239)"/>
<path d="M0 0 C1.98 1.65 3.96 3.3 6 5 C5.34 5.66 4.68 6.32 4 7 C3.34 6.67 2.68 6.34 2 6 C2 5.34 2 4.68 2 4 C0.68 4.33 -0.64 4.66 -2 5 C-2 3.68 -2 2.36 -2 1 C-1.34 0.67 -0.68 0.34 0 0 Z " fill="#282767" transform="translate(292,206)"/>
<path d="M0 0 C0.66 0.66 1.32 1.32 2 2 C1.69670231 5.84177074 0.47524576 8.09427672 -2 11 C-2.33 8.03 -2.66 5.06 -3 2 C-2.01 1.34 -1.02 0.68 0 0 Z " fill="#242380" transform="translate(435,99)"/>
<path d="M0 0 C1.9375 0.6875 1.9375 0.6875 4 2 C4.75 4.625 4.75 4.625 5 7 C4.01 7 3.02 7 2 7 C2 6.34 2 5.68 2 5 C0.68 4.34 -0.64 3.68 -2 3 C-1.34 2.67 -0.68 2.34 0 2 C0 1.34 0 0.68 0 0 Z " fill="#27277A" transform="translate(388,55)"/>
<path d="M0 0 C0.66 0 1.32 0 2 0 C0.31326082 4.49797113 -1.81673892 8.72886302 -4 13 C-5.08784335 9.68604014 -5.07262544 9.16419665 -3.5625 5.75 C-3.046875 4.8425 -2.53125 3.935 -2 3 C-1.34 3 -0.68 3 0 3 C0 2.01 0 1.02 0 0 Z " fill="#FEEEEE" transform="translate(473,359)"/>
<path d="M0 0 C1.65 0 3.3 0 5 0 C4.67 1.65 4.34 3.3 4 5 C2.68 5 1.36 5 0 5 C0 3.35 0 1.7 0 0 Z " fill="#EDEDED" transform="translate(229,309)"/>
<path d="M0 0 C-2.58926331 2.58926331 -4.02705279 2.37398043 -7.625 2.625 C-8.62789063 2.69976562 -9.63078125 2.77453125 -10.6640625 2.8515625 C-11.82035156 2.92503906 -11.82035156 2.92503906 -13 3 C-9.19777044 -0.80222956 -5.07002404 -1.49118354 0 0 Z " fill="#292771" transform="translate(288,281)"/>
<path d="M0 0 C2.3125 1.375 2.3125 1.375 4 3 C0.77208445 5.1519437 -0.28400809 5.20086443 -4 5 C-4.33 4.01 -4.66 3.02 -5 2 C-2.75 0.8125 -2.75 0.8125 0 0 Z " fill="#2A289C" transform="translate(293,480)"/>
<path d="M0 0 C0.99 0 1.98 0 3 0 C3 0.66 3 1.32 3 2 C4.98 2 6.96 2 9 2 C9 2.33 9 2.66 9 3 C7.35 3 5.7 3 4 3 C4 3.66 4 4.32 4 5 C1.525 4.01 1.525 4.01 -1 3 C-0.67 2.01 -0.34 1.02 0 0 Z " fill="#C9C9C9" transform="translate(166,308)"/>
<path d="M0 0 C1.98 0 3.96 0 6 0 C5.01 0.33 4.02 0.66 3 1 C2.34 4.96 1.68 8.92 1 13 C0.67 13 0.34 13 0 13 C0 8.71 0 4.42 0 0 Z " fill="#222069" transform="translate(296,302)"/>
<path d="M0 0 C1.125 1.75 1.125 1.75 2 4 C1.1875 6 1.1875 6 0 8 C-0.36784131 9.3242287 -0.71202981 10.65613912 -1 12 C-2.17353189 8.47940432 -2.20146402 5.693507 -2 2 C-1.34 1.34 -0.68 0.68 0 0 Z " fill="#2F2C84" transform="translate(324,303)"/>
<path d="M0 0 C0.33 0.66 0.66 1.32 1 2 C-0.70847138 6.13629913 -2.67356033 9.01767477 -6 12 C-6.66 11.67 -7.32 11.34 -8 11 C-5.36 7.37 -2.72 3.74 0 0 Z " fill="#36347E" transform="translate(396,214)"/>
<path d="M0 0 C0.33 0 0.66 0 1 0 C0.91276622 1.77174819 0.80458345 3.54247377 0.6875 5.3125 C0.62949219 6.29863281 0.57148438 7.28476563 0.51171875 8.30078125 C-0.04622813 11.24384457 -0.68540132 12.18182999 -3 14 C-2.40380045 9.13103697 -1.43023178 4.67209049 0 0 Z " fill="#FFEDEA" transform="translate(12,171)"/>
<path d="M0 0 C0 0.99 0 1.98 0 3 C-5 2 -5 2 -10 1 C-10 0.67 -10 0.34 -10 0 C-6.33694766 -0.74926071 -3.57644848 -1.2380014 0 0 Z " fill="#E7E7E7" transform="translate(170,318)"/>
<path d="M0 0 C0.33 0 0.66 0 1 0 C1 2.97 1 5.94 1 9 C0.01 9.33 -0.98 9.66 -2 10 C-2 6.09567131 -1.31626692 3.61973402 0 0 Z " fill="#16134D" transform="translate(76,270)"/>
<path d="M0 0 C2.64 0.33 5.28 0.66 8 1 C7.1875 2.9375 7.1875 2.9375 6 5 C5.01 5.33 4.02 5.66 3 6 C0 2.25 0 2.25 0 0 Z " fill="#2C2B81" transform="translate(391,233)"/>
<path d="M0 0 C2 3 2 3 1.75 5.625 C1.5025 6.40875 1.255 7.1925 1 8 C0.01 8.495 0.01 8.495 -1 9 C-1.625 5.625 -1.625 5.625 -2 2 C-1.34 1.34 -0.68 0.68 0 0 Z " fill="#2A287A" transform="translate(386,177)"/>
<path d="M0 0 C0.66 0.33 1.32 0.66 2 1 C1.67 2.65 1.34 4.3 1 6 C0.34 6 -0.32 6 -1 6 C-1.66 7.98 -2.32 9.96 -3 12 C-4.21386936 8.35839192 -3.6674695 7.66834531 -2.0625 4.3125 C-1.49208984 3.10013672 -1.49208984 3.10013672 -0.91015625 1.86328125 C-0.60980469 1.24839844 -0.30945313 0.63351563 0 0 Z " fill="#22213B" transform="translate(30,156)"/>
<path d="M0 0 C2.9297008 2.82506863 5.50174717 5.78796065 8 9 C7.67 9.66 7.34 10.32 7 11 C4.66666667 8.66666667 2.33333333 6.33333333 0 4 C0 2.68 0 1.36 0 0 Z " fill="#FEF0EB" transform="translate(443,91)"/>
<path d="M0 0 C5.75 1.875 5.75 1.875 8 3 C8 3.99 8 4.98 8 6 C4.65750371 5.40312566 2.53563658 4.26396123 0 2 C0 1.34 0 0.68 0 0 Z " fill="#252660" transform="translate(343,30)"/>
<path d="M0 0 C0 0.66 0 1.32 0 2 C-0.99 2 -1.98 2 -3 2 C-3.66 2.66 -4.32 3.32 -5 4 C-5.99 4 -6.98 4 -8 4 C-5.97675095 -0.48005146 -4.79569304 -1.43870791 0 0 Z " fill="#14142F" transform="translate(169,27)"/>
<path d="M0 0 C2.97 0 5.94 0 9 0 C7.35 1.32 5.7 2.64 4 4 C2.68 3.34 1.36 2.68 0 2 C0 1.34 0 0.68 0 0 Z " fill="#2A2787" transform="translate(395,339)"/>
<path d="M0 0 C1.65 0.33 3.3 0.66 5 1 C1.8745041 3.64465038 -1.08788267 4.84414715 -5 6 C-5 5.34 -5 4.68 -5 4 C-3.35178756 2.96986723 -1.68496298 1.96885372 0 1 C0 0.67 0 0.34 0 0 Z " fill="#3D3CA4" transform="translate(344,466)"/>
<path d="M0 0 C0.66 0.33 1.32 0.66 2 1 C-2.455 3.97 -2.455 3.97 -7 7 C-7.66 6.67 -8.32 6.34 -9 6 C-7.73295613 3.46591226 -6.56876843 3.06790028 -4.0625 1.8125 C-3.35222656 1.44769531 -2.64195312 1.08289063 -1.91015625 0.70703125 C-1.27980469 0.47371094 -0.64945312 0.24039062 0 0 Z " fill="#FFEFED" transform="translate(389,456)"/>
<path d="M0 0 C0.99 0.33 1.98 0.66 3 1 C3 1.66 3 2.32 3 3 C0.5 4.625 0.5 4.625 -2 6 C-2.33 5.01 -2.66 4.02 -3 3 C-3.66 2.67 -4.32 2.34 -5 2 C-3.35 2 -1.7 2 0 2 C0 1.34 0 0.68 0 0 Z " fill="#26248F" transform="translate(420,264)"/>
<path d="M0 0 C0.33 0 0.66 0 1 0 C1.36923077 6.52307692 1.36923077 6.52307692 -0.5 8.9375 C-0.995 9.288125 -1.49 9.63875 -2 10 C-2.17942163 6.05272412 -2.09350689 3.4019487 0 0 Z " fill="#201F5A" transform="translate(254,214)"/>
<path d="M0 0 C0.99 0.33 1.98 0.66 3 1 C2.25 3.9375 2.25 3.9375 1 7 C-1.125 7.875 -1.125 7.875 -3 8 C-2.690625 7.236875 -2.38125 6.47375 -2.0625 5.6875 C-1.32106407 3.81210323 -0.63771783 1.91315348 0 0 Z " fill="#222280" transform="translate(397,213)"/>
<path d="M0 0 C3.465 1.98 3.465 1.98 7 4 C6.67 4.66 6.34 5.32 6 6 C3.03 5.01 0.06 4.02 -3 3 C-2.01 2.01 -1.02 1.02 0 0 Z " fill="#262448" transform="translate(141,180)"/>
<path d="M0 0 C0.33 0.66 0.66 1.32 1 2 C-0.98 4.97 -0.98 4.97 -3 8 C-4.32 7.34 -5.64 6.68 -7 6 C-4.69 4.02 -2.38 2.04 0 0 Z " fill="#191527" transform="translate(104,60)"/>
<path d="M0 0 C0.99 0.66 1.98 1.32 3 2 C3 2.99 3 3.98 3 5 C1.02 5.33 -0.96 5.66 -3 6 C-1.125 1.125 -1.125 1.125 0 0 Z " fill="#2D2AAA" transform="translate(435,392)"/>
<path d="M0 0 C2.31 0 4.62 0 7 0 C5 3 5 3 2.875 3.6875 C1.946875 3.8421875 1.946875 3.8421875 1 4 C0.67 2.68 0.34 1.36 0 0 Z " fill="#262193" transform="translate(336,339)"/>
<path d="M0 0 C0.99 0.33 1.98 0.66 3 1 C3 2.98 3 4.96 3 7 C2.01 7.33 1.02 7.66 0 8 C0 5.36 0 2.72 0 0 Z " fill="#2C2A9A" transform="translate(476,312)"/>
<path d="M0 0 C3 1 3 1 4.75 3.875 C6 7 6 7 5 10 C4.15801693 8.90241493 3.32669329 7.79664683 2.5 6.6875 C2.0359375 6.07261719 1.571875 5.45773437 1.09375 4.82421875 C0 3 0 3 0 0 Z " fill="#282672" transform="translate(317,293)"/>
<path d="M0 0 C0.66 0 1.32 0 2 0 C2.66 1.32 3.32 2.64 4 4 C1.36 4 -1.28 4 -4 4 C-3.67 3.34 -3.34 2.68 -3 2 C-2.01 2 -1.02 2 0 2 C0 1.34 0 0.68 0 0 Z " fill="#1A195F" transform="translate(289,176)"/>
<path d="M0 0 C2.64465038 3.1254959 3.84414715 6.08788267 5 10 C4.01 10 3.02 10 2 10 C0.68373308 6.38026598 0 3.90432869 0 0 Z " fill="#393788" transform="translate(466,149)"/>
<path d="M0 0 C-2.26185454 2.26185454 -3.96983561 3.03921617 -7 4 C-7.99 3.67 -8.98 3.34 -10 3 C-6.68152292 -0.06320961 -4.44849969 -0.3033068 0 0 Z " fill="#FFEEEE" transform="translate(354,477)"/>
<path d="M0 0 C1.32 0.33 2.64 0.66 4 1 C2.02 3.97 2.02 3.97 0 7 C-0.99 6.34 -1.98 5.68 -3 5 C-2.34 5 -1.68 5 -1 5 C-0.67 3.35 -0.34 1.7 0 0 Z " fill="#413EA5" transform="translate(448,378)"/>
<path d="M0 0 C0.99 0 1.98 0 3 0 C4.32 2.64 5.64 5.28 7 8 C2.60841671 6.5361389 2.12052567 4.02168662 0 0 Z " fill="#363485" transform="translate(405,254)"/>
<path d="M0 0 C0.99 0 1.98 0 3 0 C1.52307692 4.67692308 1.52307692 4.67692308 -1.125 6.3125 C-2.053125 6.6528125 -2.053125 6.6528125 -3 7 C-3 6.01 -3 5.02 -3 4 C-2.01 4 -1.02 4 0 4 C0 2.68 0 1.36 0 0 Z " fill="#242249" transform="translate(131,212)"/>
<path d="M0 0 C3.10551666 3.10551666 3.81323934 4.89198233 5 9 C4.01 9 3.02 9 2 9 C1.34 6.03 0.68 3.06 0 0 Z " fill="#343284" transform="translate(456,130)"/>
<path d="M0 0 C0.66 0.99 1.32 1.98 2 3 C-0.31 4.65 -2.62 6.3 -5 8 C-3.8141763 4.62496331 -2.72426311 2.35277269 0 0 Z " fill="#FDF3EE" transform="translate(52,97)"/>
<path d="M0 0 C1.485 0.99 1.485 0.99 3 2 C3.1875 4.625 3.1875 4.625 3 7 C2.01 7 1.02 7 0 7 C0 4.69 0 2.38 0 0 Z " fill="#242177" transform="translate(409,72)"/>
<path d="M0 0 C6.75 -0.125 6.75 -0.125 9 1 C9 1.66 9 2.32 9 3 C3.46153846 3.36923077 3.46153846 3.36923077 1.125 1.5 C0.75375 1.005 0.3825 0.51 0 0 Z " fill="#1B1851" transform="translate(309,20)"/>
<path d="M0 0 C0.99 0 1.98 0 3 0 C3.33 0.99 3.66 1.98 4 3 C0.42355152 4.2380014 -2.33694766 3.74926071 -6 3 C-6 2.67 -6 2.34 -6 2 C-4.02 2 -2.04 2 0 2 C0 1.34 0 0.68 0 0 Z " fill="#3C3A9A" transform="translate(204,481)"/>
<path d="M0 0 C0.66 0.33 1.32 0.66 2 1 C2 1.66 2 2.32 2 3 C1.34 3 0.68 3 0 3 C0 3.66 0 4.32 0 5 C-2.31 5 -4.62 5 -7 5 C-7 4.67 -7 4.34 -7 4 C-5.35 4 -3.7 4 -2 4 C-1.34 2.68 -0.68 1.36 0 0 Z " fill="#2D2BA2" transform="translate(339,467)"/>
<path d="M0 0 C0.625 1.875 0.625 1.875 1 4 C0.34 4.66 -0.32 5.32 -1 6 C-2.32 4.68 -3.64 3.36 -5 2 C-3.35 1.34 -1.7 0.68 0 0 Z " fill="#343087" transform="translate(119,444)"/>
<path d="M0 0 C0 3.10551666 -0.5393715 4.35261084 -2 7 C-2.99 6.34 -3.98 5.68 -5 5 C-3.35 3.35 -1.7 1.7 0 0 Z " fill="#36337B" transform="translate(318,262)"/>
<path d="M0 0 C2.50298434 2.93828597 3.46930939 5.17902761 4 9 C0.6729664 6.7819776 0.11707614 5.72358715 -1 2 C-0.67 1.34 -0.34 0.68 0 0 Z " fill="#FEEFED" transform="translate(476,144)"/>
<path d="M0 0 C1.98 1.65 3.96 3.3 6 5 C5.34 5.66 4.68 6.32 4 7 C2 5.75 2 5.75 0 4 C0 2.68 0 1.36 0 0 Z " fill="#252171" transform="translate(418,81)"/>
<path d="" fill="#FF0000" transform="translate(0,0)"/>
<path d="" fill="#FF0000" transform="translate(0,0)"/>
<path d="" fill="#FF0000" transform="translate(0,0)"/>
<path d="" fill="#FF0000" transform="translate(0,0)"/>
<path d="" fill="#FF0000" transform="translate(0,0)"/>
<path d="" fill="#FF0000" transform="translate(0,0)"/>
<path d="" fill="#FF0000" transform="translate(0,0)"/>
<path d="" fill="#FF0000" transform="translate(0,0)"/>
<path d="" fill="#FF0000" transform="translate(0,0)"/>
<path d="" fill="#FF0000" transform="translate(0,0)"/>
<path d="" fill="#FF0000" transform="translate(0,0)"/>
<path d="" fill="#FF0000" transform="translate(0,0)"/>
<path d="" fill="#FF0000" transform="translate(0,0)"/>
<path d="" fill="#FF0000" transform="translate(0,0)"/>
<path d="" fill="#FF0000" transform="translate(0,0)"/>
</svg>
