<?xml version="1.0" encoding="UTF-8"?>
<svg version="1.1" xmlns="http://www.w3.org/2000/svg" width="700" height="300">
<path d="M0 0 C1.45029538 -0.01141585 2.90055231 -0.03169888 4.35058594 -0.06152344 C30.35910354 -0.59443606 53.0158629 9.27997632 72.01074219 26.93579102 C89.10399843 43.4835178 100.84370188 66.83644697 101.66308594 90.79907227 C102.06455745 121.96028225 93.969299 147.10655686 71.79980469 169.89282227 C56.79572684 184.14779784 39.39985085 191.92178393 19.32714844 196.29516602 C18.53083008 196.47096191 17.73451172 196.64675781 16.9140625 196.82788086 C-6.68599632 201.09085864 -31.7956704 194.22826168 -51.61425781 181.42016602 C-74.41017893 165.58238685 -89.98527414 142.92687703 -95.20776367 115.484375 C-97.30227532 101.12185232 -97.25259047 84.16313041 -92.67285156 70.29516602 C-92.3209375 69.22008789 -91.96902344 68.14500977 -91.60644531 67.03735352 C-86.61253387 53.09395721 -79.20364686 41.48529045 -69.67285156 30.29516602 C-69.08890625 29.60680664 -68.50496094 28.91844727 -67.90332031 28.20922852 C-50.50837268 9.44910778 -25.00248199 0.13618515 0 0 Z " fill="#1C1B6C" transform="translate(106.6728515625,51.704833984375)"/>
<path d="M0 0 C5.16906819 2.94315366 8.48950593 6.50741342 10.6875 12.0625 C11.98956905 19.21370738 10.75882119 25.09209609 6.6875 31.0625 C5.09906002 33.1639206 3.45280674 35.10104807 1.6875 37.0625 C6.90170906 35.79799852 8.90515993 34.10965707 11.875 29.6875 C12.52855469 28.73101562 13.18210937 27.77453125 13.85546875 26.7890625 C14.76232422 25.43941406 14.76232422 25.43941406 15.6875 24.0625 C16.28175781 23.41023438 16.87601562 22.75796875 17.48828125 22.0859375 C18.93162023 20.0489919 18.93162023 20.0489919 18.66015625 17.234375 C17.47944349 13.38401853 15.51204337 10.49278749 13.125 7.3125 C8.6875 1.29258346 8.6875 1.29258346 8.6875 -0.9375 C12.4641665 -1.42134339 15.92920413 -1.6283253 19.6875 -0.9375 C22.42591069 1.32984193 24.16386494 3.86093772 25.6875 7.0625 C25.6875 7.7225 25.6875 8.3825 25.6875 9.0625 C26.3475 9.0625 27.0075 9.0625 27.6875 9.0625 C28.05875 7.9796875 28.05875 7.9796875 28.4375 6.875 C30.86397059 1.41544118 30.86397059 1.41544118 33.6875 -0.9375 C37.71940728 -1.36757011 41.64845865 -1.22328123 45.6875 -0.9375 C44.60501309 0.77136979 43.52146706 2.47956871 42.4375 4.1875 C41.48617187 5.69376953 41.48617187 5.69376953 40.515625 7.23046875 C39.12839735 9.37948595 37.69889153 11.44046295 36.1875 13.5 C34.45942286 15.85067071 34.45942286 15.85067071 34.94165039 17.98388672 C35.74946662 20.23519519 36.7561291 21.9206603 38.12109375 23.8828125 C38.60513672 24.58277344 39.08917969 25.28273437 39.58789062 26.00390625 C40.09513672 26.72449219 40.60238281 27.44507813 41.125 28.1875 C41.62837891 28.91582031 42.13175781 29.64414063 42.65039062 30.39453125 C45.44006322 34.41583441 45.44006322 34.41583441 48.6875 38.0625 C48.3575 39.0525 48.0275 40.0425 47.6875 41.0625 C47.52938612 44.11520463 47.52938612 44.11520463 48.6875 47.0625 C49.18991694 51.46070729 49.1313588 55.02682946 47.375 59.125 C42.22158236 62.84025458 35.53668381 61.37560435 29.5 60.5625 C28.1078125 60.315 28.1078125 60.315 26.6875 60.0625 C26.1925 61.0525 26.1925 61.0525 25.6875 62.0625 C23.3125 61.875 23.3125 61.875 20.6875 61.0625 C19.375 58.5 19.375 58.5 18.6875 56.0625 C17.3675 56.0625 16.0475 56.0625 14.6875 56.0625 C14.6875 57.7125 14.6875 59.3625 14.6875 61.0625 C13.0375 61.0625 11.3875 61.0625 9.6875 61.0625 C9.3575 55.7825 9.0275 50.5025 8.6875 45.0625 C8.3575 47.3725 8.0275 49.6825 7.6875 52.0625 C5.09889407 54.86682309 3.69646512 55.97281421 -0.125 56.3125 C-0.846875 56.23 -1.56875 56.1475 -2.3125 56.0625 C-2.3125 57.7125 -2.3125 59.3625 -2.3125 61.0625 C-4.2925 61.0625 -6.2725 61.0625 -8.3125 61.0625 C-8.3125 54.7925 -8.3125 48.5225 -8.3125 42.0625 C-9.7975 41.5675 -9.7975 41.5675 -11.3125 41.0625 C-9.6625 40.4025 -8.0125 39.7425 -6.3125 39.0625 C-7.16972656 38.97613281 -8.02695313 38.88976562 -8.91015625 38.80078125 C-16.08823396 37.91869504 -20.95268264 37.04837661 -26.3125 32.0625 C-26.3125 31.4025 -26.3125 30.7425 -26.3125 30.0625 C-26.9725 30.0625 -27.6325 30.0625 -28.3125 30.0625 C-28.3125 32.3725 -28.3125 34.6825 -28.3125 37.0625 C-36.8925 37.0625 -45.4725 37.0625 -54.3125 37.0625 C-54.8075 34.0925 -54.8075 34.0925 -55.3125 31.0625 C-56.075625 31.866875 -56.83875 32.67125 -57.625 33.5 C-61.42583253 37.12404963 -64.02056877 37.1858093 -69.07421875 37.16015625 C-70.58568481 37.15640991 -70.58568481 37.15640991 -72.12768555 37.15258789 C-74.0444812 37.13893188 -74.0444812 37.13893188 -76 37.125 C-82.0946875 37.0940625 -82.0946875 37.0940625 -88.3125 37.0625 C-88.3125 24.5225 -88.3125 11.9825 -88.3125 -0.9375 C-82.5890625 -1.06125 -82.5890625 -1.06125 -76.75 -1.1875 C-75.56075928 -1.22391602 -74.37151855 -1.26033203 -73.14624023 -1.29785156 C-66.63737268 -1.36579496 -62.55820074 -0.91040098 -57.3125 3.0625 C-55.76225536 6.16298928 -56.02257985 8.64144218 -56.3125 12.0625 C-58.3125 15 -58.3125 15 -60.3125 17.0625 C-58.6625 18.7125 -57.0125 20.3625 -55.3125 22.0625 C-54.9825 14.4725 -54.6525 6.8825 -54.3125 -0.9375 C-51.0125 -0.9375 -47.7125 -0.9375 -44.3125 -0.9375 C-44.3125 8.9625 -44.3125 18.8625 -44.3125 29.0625 C-39.0325 29.0625 -33.7525 29.0625 -28.3125 29.0625 C-29.3025 27.0825 -30.2925 25.1025 -31.3125 23.0625 C-32.22866632 17.1702931 -31.69322403 12.0752977 -28.3125 7.0625 C-20.47416562 -2.08222344 -11.24140593 -4.87579053 0 0 Z " fill="#F6F6F8" transform="translate(130.3125,123.9375)"/>
<path d="M0 0 C1.45029538 -0.01141585 2.90055231 -0.03169888 4.35058594 -0.06152344 C30.35910354 -0.59443606 53.0158629 9.27997632 72.01074219 26.93579102 C89.10399843 43.4835178 100.84370188 66.83644697 101.66308594 90.79907227 C102.06455745 121.96028225 93.969299 147.10655686 71.79980469 169.89282227 C56.79572684 184.14779784 39.39985085 191.92178393 19.32714844 196.29516602 C18.53083008 196.47096191 17.73451172 196.64675781 16.9140625 196.82788086 C-6.68599632 201.09085864 -31.7956704 194.22826168 -51.61425781 181.42016602 C-74.41017893 165.58238685 -89.98527414 142.92687703 -95.20776367 115.484375 C-97.30227532 101.12185232 -97.25259047 84.16313041 -92.67285156 70.29516602 C-92.3209375 69.22008789 -91.96902344 68.14500977 -91.60644531 67.03735352 C-86.61253387 53.09395721 -79.20364686 41.48529045 -69.67285156 30.29516602 C-69.08890625 29.60680664 -68.50496094 28.91844727 -67.90332031 28.20922852 C-50.50837268 9.44910778 -25.00248199 0.13618515 0 0 Z M-60.67285156 28.29516602 C-61.43082031 28.97063477 -62.18878906 29.64610352 -62.96972656 30.34204102 C-77.81390566 44.36723092 -89.83809465 65.70494398 -90.81811523 86.35620117 C-90.84288394 89.87761852 -90.85850784 93.39865516 -90.86035156 96.92016602 C-90.87259766 98.12801758 -90.88484375 99.33586914 -90.89746094 100.58032227 C-90.93970044 126.74065512 -80.19482143 148.2938324 -62.23535156 167.04516602 C-50.88223906 178.04654697 -35.9328839 186.2343731 -20.67285156 190.29516602 C-19.47789063 190.63161133 -19.47789063 190.63161133 -18.25878906 190.97485352 C5.82997514 196.55732903 32.77726543 190.98071629 53.58886719 178.13891602 C75.98116934 163.06164552 90.62449431 141.40535201 96.01074219 114.93579102 C100.08987098 90.06717137 95.26857005 64.88839263 80.56152344 44.13891602 C68.02139067 28.17874704 53.57466078 16.37703652 34.32714844 9.29516602 C32.80927734 8.72282227 32.80927734 8.72282227 31.26074219 8.13891602 C-0.15005986 -3.09355471 -36.26090616 6.54030311 -60.67285156 28.29516602 Z " fill="#F7F4F5" transform="translate(106.6728515625,51.704833984375)"/>
<path d="M0 0 C44.27272727 0 44.27272727 0 53.3125 8.0625 C56.8340035 12.10570773 56.33061633 16.87948855 56.28125 21.9765625 C55.86895501 26.40873369 54.78784112 28.53403537 52 32 C49.25 33.4375 49.25 33.4375 47 34 C47 34.66 47 35.32 47 36 C47.721875 36.226875 48.44375 36.45375 49.1875 36.6875 C53.32393969 38.61783852 55.96902316 41.28170527 58.3125 45.1875 C59.98197262 52.01716071 59.74316237 58.1658042 56.19140625 64.31640625 C52.56179033 69.44547006 47.79006878 71.21189052 42 73 C28.08168429 74.54647952 14.00396769 74 0 74 C0 49.58 0 25.16 0 0 Z M13 12 C13 18.27 13 24.54 13 31 C17.2075 31.061875 17.2075 31.061875 21.5 31.125 C22.8003418 31.15231201 22.8003418 31.15231201 24.12695312 31.18017578 C30.39681461 31.22422966 36.61015396 31.04011247 41.5625 26.8125 C43.47911341 23.0626042 43.11396753 21.0102831 42 17 C39.81039093 13.6579651 36.75883082 12.99266361 33 12 C29.53696186 11.76493274 26.09390979 11.81066929 22.625 11.875 C21.69816406 11.88402344 20.77132813 11.89304687 19.81640625 11.90234375 C17.54415841 11.92576899 15.2720447 11.96163527 13 12 Z M13 42 C13 48.6 13 55.2 13 62 C17.6715625 62.0928125 17.6715625 62.0928125 22.4375 62.1875 C23.39970459 62.21481201 24.36190918 62.24212402 25.35327148 62.27026367 C31.80913171 62.33152222 38.48225198 61.79228441 43.71655273 57.63745117 C45.57256113 55.26951351 45.59094606 52.93795835 45.48828125 50.00390625 C44.56974744 46.2342435 42.2003499 45.03099128 39 43 C35.89799518 41.97124099 33.05194908 41.8834189 29.796875 41.90234375 C28.8171875 41.90556641 27.8375 41.90878906 26.828125 41.91210938 C25.81234375 41.92048828 24.7965625 41.92886719 23.75 41.9375 C22.71875 41.94201172 21.6875 41.94652344 20.625 41.95117188 C18.08330846 41.96293897 15.54164682 41.9808739 13 42 Z " fill="#A4A4A4" transform="translate(255,116)"/>
<path d="M0 0 C43.81578947 0 43.81578947 0 52.5234375 8.484375 C58.13865855 14.78121248 58.6169652 21.04883804 58.37109375 29.1953125 C57.74554263 35.60885766 55.70536181 40.33907945 51.09765625 44.87109375 C45.44233775 49.3975195 40.00788655 51.26740482 32.7265625 51.1953125 C30.99599609 51.18564453 30.99599609 51.18564453 29.23046875 51.17578125 C28.04066406 51.15902344 26.85085938 51.14226562 25.625 51.125 C24.41199219 51.11597656 23.19898438 51.10695312 21.94921875 51.09765625 C18.96606071 51.07416682 15.98300468 51.03829821 13 51 C13 58.26 13 65.52 13 73 C8.71 73 4.42 73 0 73 C0 48.91 0 24.82 0 0 Z M13 12 C13 21.24 13 30.48 13 40 C28.16858173 40.97082897 28.16858173 40.97082897 41.9375 35.875 C45.40250897 31.04498749 46.31917684 27.12784562 45.4375 21.25 C43.75868493 17.45441811 42.56878807 16.09472343 39 14 C33.02712788 12.17170254 27.71635154 11.74443351 21.5 11.875 C18.695 11.91625 15.89 11.9575 13 12 Z " fill="#A4A4A4" transform="translate(476,116)"/>
<path d="M0 0 C0.56976562 0.36222656 1.13953125 0.72445312 1.7265625 1.09765625 C6.87245069 4.83666368 9.05173817 10.1552145 11 16 C11.76448707 26.45216754 10.9926944 34.0109584 5.125 42.8125 C-1.60145228 49.73678911 -9.61169938 51.85119408 -19 52 C-26.85962368 51.50185484 -33.15135154 49.38302791 -39 44 C-45.90285802 35.48405305 -46.77891994 27.72652645 -46.22216797 17.06738281 C-45.5387853 10.70816916 -42.23879017 5.86326044 -37.6875 1.5625 C-27.48572446 -6.0834167 -10.83581058 -7.2159874 0 0 Z M-31.3125 13.6875 C-33.75147053 18.47510883 -34.63612938 22.85875935 -33.55859375 28.1796875 C-32.03123594 32.80539973 -30.00987849 36.09923684 -26 39 C-20.33164923 41.13051805 -15.34370725 41.65047412 -9.7578125 39.12890625 C-6.22301855 36.85878303 -3.87674564 33.75349129 -2 30 C-1.49761365 23.54626762 -1.05558315 17.44057496 -5 12 C-10.17546698 7.32945663 -13.39604098 6.64215931 -20.23828125 6.72265625 C-25.47084042 7.24813249 -28.0068907 9.84584594 -31.3125 13.6875 Z " fill="#A4A4A4" transform="translate(627,138)"/>
<path d="M0 0 C0.56976563 0.36222656 1.13953125 0.72445312 1.7265625 1.09765625 C6.87245069 4.83666368 9.05173817 10.1552145 11 16 C11.76448707 26.45216754 10.9926944 34.0109584 5.125 42.8125 C-1.60145228 49.73678911 -9.61169938 51.85119408 -19 52 C-26.85962368 51.50185484 -33.15135154 49.38302791 -39 44 C-45.90285802 35.48405305 -46.77891994 27.72652645 -46.22216797 17.06738281 C-45.5387853 10.70816916 -42.23879017 5.86326044 -37.6875 1.5625 C-27.48572446 -6.0834167 -10.83581058 -7.2159874 0 0 Z M-31.3125 13.6875 C-33.75147053 18.47510883 -34.63612938 22.85875935 -33.55859375 28.1796875 C-32.03123594 32.80539973 -30.00987849 36.09923684 -26 39 C-20.33164923 41.13051805 -15.34370725 41.65047412 -9.7578125 39.12890625 C-6.22301855 36.85878303 -3.87674564 33.75349129 -2 30 C-1.49761365 23.54626762 -1.05558315 17.44057496 -5 12 C-10.17546698 7.32945663 -13.39604098 6.64215931 -20.23828125 6.72265625 C-25.47084042 7.24813249 -28.0068907 9.84584594 -31.3125 13.6875 Z " fill="#A4A4A4" transform="translate(399,138)"/>
<path d="M0 0 C5.7234375 -0.12375 5.7234375 -0.12375 11.5625 -0.25 C12.75174072 -0.28641602 13.94098145 -0.32283203 15.16625977 -0.36035156 C21.67512732 -0.42829496 25.75429926 0.02709902 31 4 C32.55024464 7.10048928 32.28992015 9.57894218 32 13 C30 15.9375 30 15.9375 28 18 C29.65 19.65 31.3 21.3 33 23 C33.33 15.41 33.66 7.82 34 0 C37.3 0 40.6 0 44 0 C44 9.9 44 19.8 44 30 C49.28 30 54.56 30 60 30 C60 32.64 60 35.28 60 38 C51.42 38 42.84 38 34 38 C33.505 35.03 33.505 35.03 33 32 C32.236875 32.804375 31.47375 33.60875 30.6875 34.4375 C26.88666747 38.06154963 24.29193123 38.1233093 19.23828125 38.09765625 C17.72681519 38.09390991 17.72681519 38.09390991 16.18481445 38.09008789 C14.2680188 38.07643188 14.2680188 38.07643188 12.3125 38.0625 C6.2178125 38.0315625 6.2178125 38.0315625 0 38 C0 25.46 0 12.92 0 0 Z " fill="#F6F6F7" transform="translate(42,123)"/>
<path d="M0 0 C5.15452881 -0.59704967 9.8622677 -0.86864752 15 0 C18.37933023 2.8215767 20.0693854 6.09224997 22 10 C22.7922148 11.22172886 23.60094426 12.43319457 24.4375 13.625 C24.953125 14.40875 25.46875 15.1925 26 16 C28.13384459 13.45150003 30.00074267 10.99869593 31.6484375 8.10546875 C33.5436913 4.90240408 35.20339 2.4735973 38 0 C42.80114588 -0.93957909 47.17388728 -0.67104657 52 0 C50.7381209 3.40134451 49.29379509 6.29122994 47.25 9.28515625 C46.7240625 10.06310547 46.198125 10.84105469 45.65625 11.64257812 C44.83640625 12.84043945 44.83640625 12.84043945 44 14.0625 C42.91455105 15.65611314 41.83114147 17.25111769 40.75 18.84765625 C40.27046875 19.54898682 39.7909375 20.25031738 39.296875 20.97290039 C38.86890625 21.64184326 38.4409375 22.31078613 38 23 C37.56679443 23.65693848 37.13358887 24.31387695 36.68725586 24.99072266 C35.75352306 27.02147891 35.75352306 27.02147891 36.79516602 29.0871582 C37.27655029 29.81765381 37.75793457 30.54814941 38.25390625 31.30078125 C39.0418457 32.51991211 39.0418457 32.51991211 39.84570312 33.76367188 C40.41224609 34.60478516 40.97878906 35.44589844 41.5625 36.3125 C42.37170898 37.55676758 42.37170898 37.55676758 43.19726562 38.82617188 C45.67595433 42.61446932 48.22425907 46.33059761 50.90234375 49.98046875 C53 53 53 53 53 55 C47.95603504 56.04146645 42.88747413 56.96794932 38 55 C33.48981237 50.7989334 30.65556347 45.11243164 27.88525391 39.67407227 C27.11299452 38.01481431 27.11299452 38.01481431 26 37 C25.71503662 37.54527344 25.43007324 38.09054688 25.13647461 38.65234375 C16.98013068 53.75489156 16.98013068 53.75489156 11.95947266 55.85253906 C7.53489015 56.5760557 3.36695774 55.96645786 -1 55 C0.37048319 51.13080755 2.15186403 48.20381304 4.625 44.9375 C8.97188648 39.09388338 13.00454713 33.08881515 17 27 C12.52291932 19.86928541 7.9217943 12.83679942 3.20166016 5.86499023 C0 1.10715702 0 1.10715702 0 0 Z " fill="#A4A4A4" transform="translate(412,134)"/>
<path d="M0 0 C25.41 0 50.82 0 77 0 C77 6.27 77 12.54 77 19 C51.59 19 26.18 19 0 19 C0 12.73 0 6.46 0 0 Z " fill="#EEEEF2" transform="translate(42,166)"/>
<path d="M0 0 C3.96 0 7.92 0 12 0 C12 25.08 12 50.16 12 76 C8.04 76 4.08 76 0 76 C0 50.92 0 25.84 0 0 Z " fill="#A4A4A4" transform="translate(327,113)"/>
<path d="M0 0 C3.96 0 7.92 0 12 0 C12.33 2.31 12.66 4.62 13 7 C13.9075 6.21625 14.815 5.4325 15.75 4.625 C21.03045268 0.29011675 24.19217284 -0.22692757 31 0 C31 3.96 31 7.92 31 12 C29.453125 12.2475 27.90625 12.495 26.3125 12.75 C21.89624547 13.65445891 19.08398928 14.54219384 16 18 C13.52751628 22.94156545 12.60845653 26.64592554 12.48828125 32.24609375 C12.47033005 32.90207047 12.45237885 33.55804718 12.43388367 34.23390198 C12.38027847 36.30170512 12.34604907 38.36928438 12.3125 40.4375 C12.27928257 41.85094231 12.24478889 43.26435523 12.20898438 44.67773438 C12.12458381 48.11827446 12.05753721 51.55889366 12 55 C8.04 55 4.08 55 0 55 C0 36.85 0 18.7 0 0 Z " fill="#A4A4A4" transform="translate(545,134)"/>
<path d="M0 0 C3.7766665 -0.48384339 7.24170413 -0.6908253 11 0 C13.73841069 2.26734193 15.47636494 4.79843772 17 8 C17 8.66 17 9.32 17 10 C17.66 10 18.32 10 19 10 C19.2475 9.278125 19.495 8.55625 19.75 7.8125 C22.17647059 2.35294118 22.17647059 2.35294118 25 0 C29.03190728 -0.43007011 32.96095865 -0.28578123 37 0 C35.91751309 1.70886979 34.83396706 3.41706871 33.75 5.125 C33.11578125 6.12917969 32.4815625 7.13335937 31.828125 8.16796875 C30.44089735 10.31698595 29.01139153 12.37796295 27.5 14.4375 C25.77318589 16.78763979 25.77318589 16.78763979 26.24975586 18.91918945 C27.07122668 21.19754798 28.10460014 22.88060367 29.50390625 24.85546875 C29.99697266 25.55994141 30.49003906 26.26441406 30.99804688 26.99023438 C31.51431641 27.71533203 32.03058594 28.44042969 32.5625 29.1875 C33.58657489 30.63795552 34.60881615 32.08970801 35.62890625 33.54296875 C36.08338135 34.18258545 36.53785645 34.82220215 37.00610352 35.48120117 C38 37 38 37 38 38 C33.87170771 38.54908321 30.1080562 38.77249874 26 38 C22.88763003 35.44506943 20.8324974 32.57466043 19 29 C19 28.34 19 27.68 19 27 C18.34 27 17.68 27 17 27 C16.7525 27.70125 16.505 28.4025 16.25 29.125 C15.8375 30.07375 15.425 31.0225 15 32 C14.54625 33.093125 14.0925 34.18625 13.625 35.3125 C11 38 11 38 8.0703125 38.37890625 C5.02516142 38.37532372 2.03358755 38.25756875 -1 38 C1.15862312 33.28719455 4.26257616 29.20669486 7.22265625 24.97265625 C9.54082352 21.22659887 9.54082352 21.22659887 10 17 C8.63384285 14.23281325 6.87930618 11.80005268 5.0625 9.3125 C0 2.20331325 0 2.20331325 0 0 Z " fill="#F9F9FA" transform="translate(139,123)"/>
<path d="M0 0 C0.66 0 1.32 0 2 0 C2.96229497 1.63146008 3.89460985 3.28065019 4.8125 4.9375 C7.15093807 8.46505871 8.2066786 9.79011194 12.3515625 10.88671875 C15.59967276 11.10255178 18.75010668 11.16615996 22 11 C22.5625 12.9375 22.5625 12.9375 23 15 C22.67 15.33 22.34 15.66 22 16 C22.144375 16.66 22.28875 17.32 22.4375 18 C23.43459853 23.3178588 23.84963225 28.01752474 21.6875 33.0625 C16.53408236 36.77775458 9.84918381 35.31310435 3.8125 34.5 C2.884375 34.335 1.95625 34.17 1 34 C0.67 34.66 0.34 35.32 0 36 C-1.625 33.25 -1.625 33.25 -3 30 C-2.1875 28 -2.1875 28 -1 26 C-0.5 23 -0.5 23 -1 20 C-1.639375 19.360625 -2.27875 18.72125 -2.9375 18.0625 C-5 16 -5 16 -6.125 12.8125 C-5.94981144 7.46924889 -3.53028948 3.9414118 0 0 Z " fill="#212086" transform="translate(156,150)"/>
<path d="M0 0 C0.66 0.33 1.32 0.66 2 1 C3.32 1 4.64 1 6 1 C10.66666667 1 15.33333333 1 20 1 C20.268125 2.093125 20.53625 3.18625 20.8125 4.3125 C21.64975389 7.91011936 21.64975389 7.91011936 23.625 9.5625 C25 11 25 11 25.3125 13.9375 C25 17 25 17 23.875 19.0625 C22.69460607 21.10070585 22.69460607 21.10070585 23.875 23.75 C24.24625 24.4925 24.6175 25.235 25 26 C23.35 26 21.7 26 20 26 C19.34 24.35 18.68 22.7 18 21 C16.68 21 15.36 21 14 21 C14 22.65 14 24.3 14 26 C12.35 26 10.7 26 9 26 C8.67 20.72 8.34 15.44 8 10 C7.67 12.31 7.34 14.62 7 17 C4.41139407 19.80432309 3.00896512 20.91031421 -0.8125 21.25 C-1.534375 21.1675 -2.25625 21.085 -3 21 C-3 22.65 -3 24.3 -3 26 C-4.98 26 -6.96 26 -9 26 C-9 19.73 -9 13.46 -9 7 C-9.99 6.67 -10.98 6.34 -12 6 C-11.071875 5.54625 -10.14375 5.0925 -9.1875 4.625 C-5.96078611 3.0578367 -5.96078611 3.0578367 -3 1 C-2.01 0.67 -1.02 0.34 0 0 Z " fill="#2C2B82" transform="translate(131,159)"/>
<path d="M0 0 C3.3 0 6.6 0 10 0 C10 9.9 10 19.8 10 30 C15.28 30 20.56 30 26 30 C26 32.64 26 35.28 26 38 C17.42 38 8.84 38 0 38 C0 25.46 0 12.92 0 0 Z " fill="#FCFCFC" transform="translate(76,123)"/>
<path d="M0 0 C0.33 0 0.66 0 1 0 C1 2.64 1 5.28 1 8 C9.58 8 18.16 8 27 8 C27 5.69 27 3.38 27 1 C27.66 1 28.32 1 29 1 C30.11375 2.175625 30.11375 2.175625 31.25 3.375 C37.0485292 8.90995969 44.36381046 8.53046084 52 9 C46.76073523 12.49284318 42.59459644 13.29086757 36.36401367 13.22705078 C35.23638107 13.22748886 35.23638107 13.22748886 34.08596802 13.22793579 C31.6131822 13.22654785 29.14070162 13.21101211 26.66796875 13.1953125 C24.94875757 13.19158046 23.22954427 13.18873439 21.5103302 13.18673706 C16.99429409 13.17911564 12.47838745 13.15947998 7.96240234 13.1373291 C3.35060375 13.11683853 -1.26121584 13.10772848 -5.87304688 13.09765625 C-14.91542134 13.07623266 -23.95769989 13.04211473 -33 13 C-33 12.67 -33 12.34 -33 12 C-26.73 11.67 -20.46 11.34 -14 11 C-20.6 10.67 -27.2 10.34 -34 10 C-34 9.67 -34 9.34 -34 9 C-33.35039307 8.9906543 -32.70078613 8.98130859 -32.03149414 8.97167969 C-29.04110661 8.91744917 -26.05219625 8.8339085 -23.0625 8.75 C-21.53012695 8.72873047 -21.53012695 8.72873047 -19.96679688 8.70703125 C-13.48995519 8.5001034 -7.41839476 7.85909524 -2 4 C-0.74506125 1.95418424 -0.74506125 1.95418424 0 0 Z " fill="#131256" transform="translate(75,153)"/>
<path d="M0 0 C2.8100346 1.79363911 4.50940468 3.01880935 6 6 C6.60542647 10.80881593 6.92821687 15.50860944 4.0625 19.625 C0.46703752 22.41331784 -1.40677574 22.76454828 -5.84375 22.46875 C-9.01247216 21.77989736 -10.80517228 20.33200445 -13 18 C-14.84862688 14.30274625 -14.47587094 10.03538558 -14 6 C-10.44272712 0.18978764 -6.66427238 -0.9575104 0 0 Z " fill="#1A1965" transform="translate(124,131)"/>
<path d="M0 0 C4.92293178 0.4842228 6.64569948 1.59028719 9.8125 5.375 C10.54535112 8.51898723 10.51847441 11.22753075 9.8125 14.375 C7.93629387 16.87660818 6.57358697 17.99445652 3.8125 19.375 C-0.36894011 19.76947548 -2.49696048 19.82535186 -6.0625 17.5 C-8.7748239 14.7876761 -9.12664093 13.91258847 -9.5625 10.0625 C-9.09536625 5.46901813 -7.66709782 4.26052015 -4.1875 1.375 C-3.1875 0.375 -3.1875 0.375 0 0 Z " fill="#F0F0F5" transform="translate(167.1875,165.625)"/>
<path d="M0 0 C10.04995766 -0.48433531 10.04995766 -0.48433531 14.1875 1.625 C16 4 16 4 16.4375 7 C16 10 16 10 14.875 12.0625 C13.69460607 14.10070585 13.69460607 14.10070585 14.875 16.75 C15.24625 17.4925 15.6175 18.235 16 19 C14.35 19 12.7 19 11 19 C10.34 17.35 9.68 15.7 9 14 C7.68 14 6.36 14 5 14 C5 15.65 5 17.3 5 19 C3.35 19 1.7 19 0 19 C0 12.73 0 6.46 0 0 Z " fill="#EBEBF1" transform="translate(140,166)"/>
<path d="M0 0 C11.48252383 -0.37040399 11.48252383 -0.37040399 13.85546875 1.328125 C15.68953664 4.00724124 15.51428526 5.85000279 15 9 C12.26513033 12.05661905 10.79836847 12.93974578 6.6875 13.25 C5.800625 13.1675 4.91375 13.085 4 13 C4 14.32 4 15.64 4 17 C2.68 17 1.36 17 0 17 C0 11.39 0 5.78 0 0 Z " fill="#F7F7F8" transform="translate(123,167)"/>
<path d="M0 0 C0.99 0.78375 1.98 1.5675 3 2.375 C9.27029687 6.38480941 16.76372888 6.41161388 24 7 C18.76073523 10.49284318 14.59459644 11.29086757 8.36401367 11.22705078 C7.23638107 11.22748886 7.23638107 11.22748886 6.08596802 11.22793579 C3.6131822 11.22654785 1.14070162 11.21101211 -1.33203125 11.1953125 C-3.05124243 11.19158046 -4.77045573 11.18873439 -6.4896698 11.18673706 C-11.00570591 11.17911564 -15.52161255 11.15947998 -20.03759766 11.1373291 C-24.64939625 11.11683853 -29.26121584 11.10772848 -33.87304688 11.09765625 C-42.91542134 11.07623266 -51.95769989 11.04211473 -61 11 C-61 10.67 -61 10.34 -61 10 C-38.56 10 -16.12 10 7 10 C7 9.01 7 8.02 7 7 C4.55503957 5.28288757 4.55503957 5.28288757 2 4 C1.34 4.66 0.68 5.32 0 6 C0 4.02 0 2.04 0 0 Z " fill="#00004A" transform="translate(103,155)"/>
<path d="M0 0 C6.93 0.495 6.93 0.495 14 1 C14.33 2.32 14.66 3.64 15 5 C14.67 5.33 14.34 5.66 14 6 C14.144375 6.66 14.28875 7.32 14.4375 8 C15.47565216 13.53681151 16.1656901 18.21503703 13 23.0625 C12.34 23.701875 11.68 24.34125 11 25 C9.68 24.67 8.36 24.34 7 24 C7.639375 23.896875 8.27875 23.79375 8.9375 23.6875 C9.618125 23.460625 10.29875 23.23375 11 23 C12.35209346 18.94371962 12.66654739 15.23678976 12 11 C9.23772878 7.65179246 7.44525847 7.08759183 3.1875 6.25 C2.135625 6.1675 1.08375 6.085 0 6 C0 5.67 0 5.34 0 5 C1.65 5 3.3 5 5 5 C5 4.34 5 3.68 5 3 C3.35 2.67 1.7 2.34 0 2 C0 1.34 0 0.68 0 0 Z " fill="#1A1788" transform="translate(164,160)"/>
<path d="M0 0 C3.96 0 7.92 0 12 0 C12 0.33 12 0.66 12 1 C8.7 1 5.4 1 2 1 C2 9.25 2 17.5 2 26 C-0.31 24.02 -2.62 22.04 -5 20 C-4.01 18.9790625 -4.01 18.9790625 -3 17.9375 C-0.51698649 14.29057391 -0.52716243 12.33434444 -1 8 C-1.88064927 5.64630193 -1.88064927 5.64630193 -3 4 C-2.01 4 -1.02 4 0 4 C0 2.68 0 1.36 0 0 Z " fill="#232351" transform="translate(74,121)"/>
<path d="M0 0 C3.04386724 -0.08226668 5.07175348 0.02391783 8 1 C8.99 1 9.98 1 11 1 C11 3.64 11 6.28 11 9 C10.01 9 9.02 9 8 9 C8 8.34 8 7.68 8 7 C7.01 7.66 6.02 8.32 5 9 C2.3125 9.125 2.3125 9.125 0 9 C0 6.03 0 3.06 0 0 Z " fill="#353535" transform="translate(62,171)"/>
<path d="M0 0 C1.79133978 -0.05391993 3.58313899 -0.09275571 5.375 -0.125 C6.37273438 -0.14820313 7.37046875 -0.17140625 8.3984375 -0.1953125 C11 0 11 0 13 2 C12.46428571 5.53571429 12.46428571 5.53571429 11 7 C9.14712498 7.07226502 7.29166122 7.0838122 5.4375 7.0625 C4.42558594 7.05347656 3.41367187 7.04445312 2.37109375 7.03515625 C1.58863281 7.02355469 0.80617187 7.01195312 0 7 C0 4.69 0 2.38 0 0 Z " fill="#0D0C42" transform="translate(52,146)"/>
<path d="M0 0 C0.99 0.33 1.98 0.66 3 1 C1.50067938 2.35491884 0.00049946 3.70888678 -1.5 5.0625 C-2.41136719 5.88492188 -3.32273437 6.70734375 -4.26171875 7.5546875 C-6.58708487 9.63126266 -8.94054397 11.6647612 -11.3125 13.6875 C-16.78271181 18.46569707 -20.84926535 24.07037907 -25 30 C-25.33 29.01 -25.66 28.02 -26 27 C-20.3690095 16.71127662 -10.13053236 5.90947721 0 0 Z " fill="#0D0D1B" transform="translate(56,72)"/>
<path d="M0 0 C2.375 0.75 2.375 0.75 3.375 1.75 C3.5625 5.1875 3.5625 5.1875 3.375 8.75 C2.715 9.41 2.055 10.07 1.375 10.75 C-1.75 10.375 -1.75 10.375 -4.625 9.75 C-5.95578101 3.33805513 -5.95578101 3.33805513 -4.5 0.75 C-2.625 -0.25 -2.625 -0.25 0 0 Z " fill="#272690" transform="translate(168.625,170.25)"/>
<path d="M0 0 C1.62463842 -0.05395478 3.24978541 -0.09277195 4.875 -0.125 C5.77992187 -0.14820313 6.68484375 -0.17140625 7.6171875 -0.1953125 C10 0 10 0 12 2 C11.46428571 5.53571429 11.46428571 5.53571429 10 7 C8.31391034 7.07205511 6.62499341 7.08386068 4.9375 7.0625 C4.01839844 7.05347656 3.09929688 7.04445312 2.15234375 7.03515625 C1.44207031 7.02355469 0.73179688 7.01195312 0 7 C0 4.69 0 2.38 0 0 Z " fill="#0C0C3B" transform="translate(52,131)"/>
<path d="M0 0 C0.66 0.33 1.32 0.66 2 1 C1.79375 1.61875 1.5875 2.2375 1.375 2.875 C1.25125 3.57625 1.1275 4.2775 1 5 C1.66 5.66 2.32 6.32 3 7 C-0.63 7 -4.26 7 -8 7 C-8 12.94 -8 18.88 -8 25 C-6.68 25 -5.36 25 -4 25 C-3.67 23.68 -3.34 22.36 -3 21 C-3 22.65 -3 24.3 -3 26 C-4.98 26 -6.96 26 -9 26 C-9 19.73 -9 13.46 -9 7 C-9.99 6.67 -10.98 6.34 -12 6 C-11.071875 5.54625 -10.14375 5.0925 -9.1875 4.625 C-5.96078611 3.0578367 -5.96078611 3.0578367 -3 1 C-2.01 0.67 -1.02 0.34 0 0 Z " fill="#3C3B86" transform="translate(131,159)"/>
<path d="M0 0 C0.33 0 0.66 0 1 0 C4.26930488 13.77778485 3.41880382 27.17826389 1 41 C-1.39955059 37.3300991 -0.71589347 35.19879414 0 31 C0.0790131 28.54532644 0.1078047 26.08873644 0.09765625 23.6328125 C0.09553383 22.61343094 0.09553383 22.61343094 0.09336853 21.57345581 C0.08781518 19.42392388 0.07527169 17.27449992 0.0625 15.125 C0.05747896 13.65885568 0.05291711 12.19270971 0.04882812 10.7265625 C0.03786111 7.15100717 0.02062919 3.57551414 0 0 Z " fill="#3F3DA1" transform="translate(201,129)"/>
<path d="M0 0 C0.66 0.33 1.32 0.66 2 1 C2.33 1.99 2.66 2.98 3 4 C4.95597184 5.39712274 6.95436401 6.73779907 9 8 C8.67 8.99 8.34 9.98 8 11 C6.02 11 4.04 11 2 11 C1.67 10.01 1.34 9.02 1 8 C-7.91 8 -16.82 8 -26 8 C-26 7.67 -26 7.34 -26 7 C-17.42 7 -8.84 7 0 7 C0 4.69 0 2.38 0 0 Z " fill="#474680" transform="translate(102,154)"/>
<path d="M0 0 C-0.30237899 3.52775489 -1.02980851 5.03808865 -3.25 7.875 C-6 10 -6 10 -8.8125 9.8125 C-9.534375 9.544375 -10.25625 9.27625 -11 9 C-10.42562214 5.12294944 -8.57271945 2.88456423 -6 0 C-3.50907189 -1.24546405 -2.58919267 -0.7767578 0 0 Z " fill="#464646" transform="translate(57,171)"/>
<path d="M0 0 C0.99 0.78375 1.98 1.5675 3 2.375 C9.27029687 6.38480941 16.76372888 6.41161388 24 7 C19.87937057 9.74708629 17.15723861 10.11949692 12.3125 10.0625 C11.31863281 10.05347656 10.32476562 10.04445312 9.30078125 10.03515625 C8.16189453 10.01775391 8.16189453 10.01775391 7 10 C7 9.01 7 8.02 7 7 C4.55503957 5.28288757 4.55503957 5.28288757 2 4 C1.34 4.66 0.68 5.32 0 6 C0 4.02 0 2.04 0 0 Z " fill="#181767" transform="translate(103,155)"/>
<path d="M0 0 C1.32 0 2.64 0 4 0 C6 3 6 3 6 6 C6.99 6.33 7.98 6.66 9 7 C7.1875 7.625 7.1875 7.625 5 8 C4.01 7.34 3.02 6.68 2 6 C2 6.66 2 7.32 2 8 C-0.64 8.33 -3.28 8.66 -6 9 C-6.33 7.02 -6.66 5.04 -7 3 C-4.69 3.66 -2.38 4.32 0 5 C0 3.35 0 1.7 0 0 Z " fill="#1F1E88" transform="translate(145,180)"/>
<path d="M0 0 C1.8871875 0.0309375 1.8871875 0.0309375 3.8125 0.0625 C3.4825 0.7225 3.1525 1.3825 2.8125 2.0625 C0.84375 2.5546875 0.84375 2.5546875 -1.6875 2.9375 C-6.98174102 3.90145853 -11.37200889 5.7218693 -16.1875 8.0625 C-17.82916854 8.8421639 -19.47494961 9.61323553 -21.125 10.375 C-21.85589844 10.72175781 -22.58679688 11.06851563 -23.33984375 11.42578125 C-24.25443359 11.74095703 -24.25443359 11.74095703 -25.1875 12.0625 C-25.8475 11.7325 -26.5075 11.4025 -27.1875 11.0625 C-19.46106615 5.86201568 -9.56329027 -0.15677525 0 0 Z " fill="#121223" transform="translate(87.1875,58.9375)"/>
<path d="M0 0 C2.80362763 -0.22732116 4.46186517 -0.34081872 6.875 1.1875 C8 3 8 3 7.6875 5.6875 C7.460625 6.450625 7.23375 7.21375 7 8 C5.0085944 8.38133299 3.00720923 8.71325582 1 9 C0 8 0 8 -0.09765625 6.15234375 C-0.06510417 4.1015625 -0.03255208 2.05078125 0 0 Z " fill="#626262" transform="translate(106,171)"/>
<path d="M0 0 C2.625 0.375 2.625 0.375 5 1 C5.625 3.3125 5.625 3.3125 6 6 C5.01 7.485 5.01 7.485 4 9 C-0.875 8.125 -0.875 8.125 -2 7 C-2.1875 4.5625 -2.1875 4.5625 -2 2 C-1.34 1.34 -0.68 0.68 0 0 Z " fill="#8E8D8E" transform="translate(92,171)"/>
<path d="M0 0 C0.99 0 1.98 0 3 0 C3 6.27 3 12.54 3 19 C2.01 19 1.02 19 0 19 C0 12.73 0 6.46 0 0 Z " fill="#0D0C6C" transform="translate(119,166)"/>
<path d="M0 0 C0.66 0.66 1.32 1.32 2 2 C0.75842158 4.73328064 -0.49282892 7.46140029 -1.75 10.1875 C-2.09804687 10.95642578 -2.44609375 11.72535156 -2.8046875 12.51757812 C-4.79331936 16.80786723 -6.82531729 20.43205705 -10 24 C-10.99 23.67 -11.98 23.34 -13 23 C-12.0409375 22.2265625 -12.0409375 22.2265625 -11.0625 21.4375 C-8.443832 18.34271055 -8.44802872 15.95758699 -8 12 C-7.34 11.67 -6.68 11.34 -6 11 C-5.34 11.33 -4.68 11.66 -4 12 C-3.79503906 11.38511719 -3.59007812 10.77023438 -3.37890625 10.13671875 C-2.25260417 6.7578125 -1.12630208 3.37890625 0 0 Z " fill="#23209F" transform="translate(196,181)"/>
<path d="M0 0 C1 2 1 2 0.14453125 4.72265625 C-0.29503906 5.82480469 -0.73460937 6.92695312 -1.1875 8.0625 C-1.64898438 9.22265625 -2.11046875 10.3828125 -2.5859375 11.578125 C-4.31238853 15.75594572 -6.10231006 19.89717315 -8 24 C-8.33 24 -8.66 24 -9 24 C-8.68440954 16.11023853 -5.6873064 5.6873064 0 0 Z " fill="#16162E" transform="translate(28,103)"/>
<path d="M0 0 C6.93 0.495 6.93 0.495 14 1 C14.33 2.32 14.66 3.64 15 5 C14.67 5.33 14.34 5.66 14 6 C13.67 6.99 13.34 7.98 13 9 C10.36 7.68 7.72 6.36 5 5 C5 4.34 5 3.68 5 3 C3.35 2.67 1.7 2.34 0 2 C0 1.34 0 0.68 0 0 Z " fill="#3F3D9B" transform="translate(164,160)"/>
<path d="M0 0 C0.66 0.66 1.32 1.32 2 2 C1.79296875 3.93359375 1.79296875 3.93359375 1.1875 6.4375 C-0.55816006 14.86171758 -0.66243951 23.42774018 -1 32 C-1.33 32 -1.66 32 -2 32 C-2.05843491 27.97922848 -2.0937424 23.95856741 -2.125 19.9375 C-2.14175781 18.80376953 -2.15851562 17.67003906 -2.17578125 16.50195312 C-2.21019727 10.59960616 -2.04944811 5.55932973 0 0 Z M2 0 C4 1 4 1 4 1 Z " fill="#0F0F37" transform="translate(18,128)"/>
<path d="M0 0 C5.22351307 3.37992022 8.50242539 8.37576244 11 14 C10.67 14.99 10.34 15.98 10 17 C9.62875 16.21625 9.2575 15.4325 8.875 14.625 C6.56693694 11.39371171 4.78383679 10.92493788 1 10 C1.33 9.38125 1.66 8.7625 2 8.125 C3.14193235 6.08981656 3.14193235 6.08981656 3 4 C2.01 4.33 1.02 4.66 0 5 C0 3.35 0 1.7 0 0 Z " fill="#1E1D7F" transform="translate(181,90)"/>
<path d="M0 0 C1.98 0 3.96 0 6 0 C6 2.64 6 5.28 6 8 C5.34 8 4.68 8 4 8 C3.67 7.34 3.34 6.68 3 6 C2.67 6.66 2.34 7.32 2 8 C1.34 8 0.68 8 0 8 C0 5.36 0 2.72 0 0 Z " fill="#161616" transform="translate(99,172)"/>
<path d="M0 0 C0.66 0 1.32 0 2 0 C3.5078125 1.96875 3.5078125 1.96875 5.125 4.5 C5.66382813 5.3353125 6.20265625 6.170625 6.7578125 7.03125 C7.16773438 7.6809375 7.57765625 8.330625 8 9 C7.67 9.66 7.34 10.32 7 11 C5.35 9.02 3.7 7.04 2 5 C0.68 6.32 -0.64 7.64 -2 9 C-2.99 8.67 -3.98 8.34 -5 8 C-4.21718695 6.66144944 -3.42348123 5.32926356 -2.625 4 C-2.18414062 3.2575 -1.74328125 2.515 -1.2890625 1.75 C-0.86367187 1.1725 -0.43828125 0.595 0 0 Z " fill="#1B1A79" transform="translate(156,150)"/>
<path d="M0 0 C0.66 0.66 1.32 1.32 2 2 C-0.76886123 3.00577013 -3.53984104 4.00480147 -6.3125 5 C-7.49102539 5.42925781 -7.49102539 5.42925781 -8.69335938 5.8671875 C-9.45068359 6.13789063 -10.20800781 6.40859375 -10.98828125 6.6875 C-12.03302612 7.06455078 -12.03302612 7.06455078 -13.09887695 7.44921875 C-15 8 -15 8 -18 8 C-18 7.34 -18 6.68 -18 6 C-17.360625 5.87625 -16.72125 5.7525 -16.0625 5.625 C-15.381875 5.41875 -14.70125 5.2125 -14 5 C-13.67 4.34 -13.34 3.68 -13 3 C-10.03 3 -7.06 3 -4 3 C-4 2.34 -4 1.68 -4 1 C-2.125 0.375 -2.125 0.375 0 0 Z " fill="#2A27A1" transform="translate(147,234)"/>
<path d="M0 0 C0.66 0 1.32 0 2 0 C0.93521458 3.10000819 0.04202519 3.97462191 -2.8203125 5.703125 C-3.91085938 6.21359375 -5.00140625 6.7240625 -6.125 7.25 C-7.22070312 7.77078125 -8.31640625 8.2915625 -9.4453125 8.828125 C-10.28835937 9.21484375 -11.13140625 9.6015625 -12 10 C-11.67 8.35 -11.34 6.7 -11 5 C-10.0925 4.71125 -9.185 4.4225 -8.25 4.125 C-3.77862779 2.6734054 -3.77862779 2.6734054 0 0 Z " fill="#2B29A5" transform="translate(162,225)"/>
<path d="M0 0 C0.33 0 0.66 0 1 0 C3 6.625 3 6.625 3 10 C2.01 10 1.02 10 0 10 C-0.33 10.66 -0.66 11.32 -1 12 C-2.5625 9.1875 -2.5625 9.1875 -4 6 C-3.67 5.01 -3.34 4.02 -3 3 C-2.01 3.33 -1.02 3.66 0 4 C0 2.68 0 1.36 0 0 Z " fill="#27258C" transform="translate(157,174)"/>
<path d="M0 0 C2.625 0.375 2.625 0.375 5 1 C5 1.66 5 2.32 5 3 C3.68 3 2.36 3 1 3 C1 3.99 1 4.98 1 6 C2.32 6 3.64 6 5 6 C4.67 6.99 4.34 7.98 4 9 C-0.875 8.125 -0.875 8.125 -2 7 C-2.1875 4.5625 -2.1875 4.5625 -2 2 C-1.34 1.34 -0.68 0.68 0 0 Z " fill="#303031" transform="translate(83,171)"/>
<path d="M0 0 C1.65 0 3.3 0 5 0 C5.38218767 1.65614657 5.71395102 3.32457024 6 5 C5 6 5 6 2.4375 6.0625 C1.2309375 6.0315625 1.2309375 6.0315625 0 6 C0 4.02 0 2.04 0 0 Z " fill="#272684" transform="translate(145,170)"/>
<path d="M0 0 C1.65 0 3.3 0 5 0 C5.38218767 1.65614657 5.71395102 3.32457024 6 5 C5 6 5 6 2.4375 6.0625 C1.2309375 6.0315625 1.2309375 6.0315625 0 6 C0 4.02 0 2.04 0 0 Z " fill="#333280" transform="translate(127,170)"/>
<path d="M0 0 C1.32 0.33 2.64 0.66 4 1 C4 1.66 4 2.32 4 3 C3.01 3 2.02 3 1 3 C1.99 3.66 2.98 4.32 4 5 C3.67 6.32 3.34 7.64 3 9 C1.35 8.67 -0.3 8.34 -2 8 C-2 7.34 -2 6.68 -2 6 C-1.01 6 -0.02 6 1 6 C0.01 5.34 -0.98 4.68 -2 4 C-1.34 2.68 -0.68 1.36 0 0 Z " fill="#292929" transform="translate(76,171)"/>
<path d="M0 0 C0.66 0.66 1.32 1.32 2 2 C1.63318342 4.93453261 1.13562754 5.86437246 -1 8 C-3 8 -3 8 -6 7 C-4.77065985 3.31197956 -3.06140622 2.27643027 0 0 Z " fill="#171773" transform="translate(137,154)"/>
<path d="M0 0 C-0.33 0.66 -0.66 1.32 -1 2 C-3.14453125 2.59765625 -3.14453125 2.59765625 -5.8125 3.0625 C-9.54301881 3.71825937 -9.54301881 3.71825937 -13.19921875 4.68359375 C-14.09060547 4.84021484 -14.09060547 4.84021484 -15 5 C-15.66 4.34 -16.32 3.68 -17 3 C-11.10261508 0.70657253 -6.33393082 -0.34548714 0 0 Z " fill="#1A1936" transform="translate(91,59)"/>
<path d="M0 0 C0.99 0 1.98 0 3 0 C3 2.64 3 5.28 3 8 C2.01 8 1.02 8 0 8 C-0.38063221 5.6739143 -0.71269945 3.33944736 -1 1 C-0.67 0.67 -0.34 0.34 0 0 Z " fill="#6E6E6E" transform="translate(70,172)"/>
<path d="M0 0 C3.96 0 7.92 0 12 0 C12 0.33 12 0.66 12 1 C8.7 1.33 5.4 1.66 2 2 C1.67 4.64 1.34 7.28 1 10 C-0.32 8.35 -1.64 6.7 -3 5 C-2.01 4.67 -1.02 4.34 0 4 C0 2.68 0 1.36 0 0 Z " fill="#060633" transform="translate(74,121)"/>
<path d="M0 0 C1.65 0 3.3 0 5 0 C5.33 1.32 5.66 2.64 6 4 C2.98968256 4.93423645 2.13349732 5.04449911 -1 4 C-0.67 2.68 -0.34 1.36 0 0 Z " fill="#D7D7D7" transform="translate(84,173)"/>
<path d="M0 0 C0.99 0.33 1.98 0.66 3 1 C0.03 3.97 -2.94 6.94 -6 10 C-6.66 9.67 -7.32 9.34 -8 9 C-8 8.34 -8 7.68 -8 7 C-7.01 7 -6.02 7 -5 7 C-5 6.34 -5 5.68 -5 5 C-3.37446717 3.29319053 -1.70884005 1.62339805 0 0 Z " fill="#2624A4" transform="translate(178,211)"/>
<path d="M0 0 C4.29 0 8.58 0 13 0 C13 0.33 13 0.66 13 1 C10.36 1 7.72 1 5 1 C5 1.66 5 2.32 5 3 C3.02 3.33 1.04 3.66 -1 4 C-0.67 2.68 -0.34 1.36 0 0 Z " fill="#131182" transform="translate(164,162)"/>
<path d="M0 0 C0.66 0.33 1.32 0.66 2 1 C1.67 2.65 1.34 4.3 1 6 C-1.375 6.625 -1.375 6.625 -4 7 C-4.66 6.34 -5.32 5.68 -6 5 C-5.625 2.875 -5.625 2.875 -5 1 C-5 1.99 -5 2.98 -5 4 C-3.68 4 -2.36 4 -1 4 C-0.67 2.68 -0.34 1.36 0 0 Z " fill="#242424" transform="translate(96,173)"/>
<path d="M0 0 C0.33 0 0.66 0 1 0 C1.75 3.1875 1.75 3.1875 2 7 C0.0625 9.9375 0.0625 9.9375 -2 12 C-3.32 11.67 -4.64 11.34 -6 11 C-4.68 10.67 -3.36 10.34 -2 10 C-1.34 6.7 -0.68 3.4 0 0 Z " fill="#3D3BA0" transform="translate(177,173)"/>
<path d="M0 0 C0.99 0 1.98 0 3 0 C3.33 0.99 3.66 1.98 4 3 C3.34 3.66 2.68 4.32 2 5 C-0.625 4.625 -0.625 4.625 -3 4 C-1.6875 2 -1.6875 2 0 0 Z " fill="#999999" transform="translate(53,172)"/>
<path d="M0 0 C1.98 0.66 3.96 1.32 6 2 C5.67 2.99 5.34 3.98 5 5 C4.01 5.33 3.02 5.66 2 6 C0 3 0 3 0 0 Z " fill="#252487" transform="translate(168,146)"/>
<path d="M0 0 C0.99 0.33 1.98 0.66 3 1 C-0.44615385 7.76923077 -0.44615385 7.76923077 -3.25 8.9375 C-3.8275 8.958125 -4.405 8.97875 -5 9 C-4.0409375 7.88625 -4.0409375 7.88625 -3.0625 6.75 C-1.21666593 4.2888879 -0.43930826 2.96533074 0 0 Z " fill="#2927A3" transform="translate(188,196)"/>
<path d="M0 0 C0 1.65 0 3.3 0 5 C-0.598125 4.814375 -1.19625 4.62875 -1.8125 4.4375 C-4.16408762 3.77906313 -4.16408762 3.77906313 -7 5 C-6.67 3.68 -6.34 2.36 -6 1 C-1.125 0 -1.125 0 0 0 Z " fill="#1D1C8E" transform="translate(172,173)"/>
<path d="M0 0 C1.32 0 2.64 0 4 0 C4.33 1.32 4.66 2.64 5 4 C3.35 4 1.7 4 0 4 C-0.33 3.01 -0.66 2.02 -1 1 C-0.67 0.67 -0.34 0.34 0 0 Z " fill="#E5E4ED" transform="translate(151,181)"/>
<path d="M0 0 C0.99 0 1.98 0 3 0 C3.33 2.31 3.66 4.62 4 7 C3.34 7 2.68 7 2 7 C0 4 0 4 0 0 Z " fill="#4F4F4F" transform="translate(101,173)"/>
<path d="M0 0 C0.66 0 1.32 0 2 0 C0.68775452 3.93673644 -0.91910327 6.22719294 -4 9 C-3.4739075 5.21213403 -2.61896089 2.82847776 0 0 Z " fill="#10101F" transform="translate(34,93)"/>
<path d="M0 0 C1.32 0.33 2.64 0.66 4 1 C3.67 2.32 3.34 3.64 3 5 C2.01 5 1.02 5 0 5 C0 3.35 0 1.7 0 0 Z " fill="#BDBDBD" transform="translate(64,173)"/>
<path d="M0 0 C2.1519437 3.22791555 2.20086443 4.28400809 2 8 C1.01 8.495 1.01 8.495 0 9 C-1.125 6.75 -1.125 6.75 -2 4 C-1.125 1.6875 -1.125 1.6875 0 0 Z " fill="#2F2F7F" transform="translate(139,149)"/>
</svg>
